<?xml version="1.0" standalone="no"?>
<!DOCTYPE svg PUBLIC "-//W3C//DTD SVG 1.1//EN" "http://www.w3.org/Graphics/SVG/1.1/DTD/svg11.dtd" >
<!--
2013-9-30: Created.
-->
<svg>
<metadata>
Created by iconfont
</metadata>
<defs>

<font id="iconfont" horiz-adv-x="1024" >
  <font-face
    font-family="iconfont"
    font-weight="500"
    font-stretch="normal"
    units-per-em="1024"
    ascent="896"
    descent="-128"
  />
    <missing-glyph />
    
    <glyph glyph-name="x" unicode="x" horiz-adv-x="1001"
d="M281 543q-27 -1 -53 -1h-83q-18 0 -36.5 -6t-32.5 -18.5t-23 -32t-9 -45.5v-76h912v41q0 16 -0.5 30t-0.5 18q0 13 -5 29t-17 29.5t-31.5 22.5t-49.5 9h-133v-97h-438v97zM955 310v-52q0 -23 0.5 -52t0.5 -58t-10.5 -47.5t-26 -30t-33 -16t-31.5 -4.5q-14 -1 -29.5 -0.5
t-29.5 0.5h-32l-45 128h-439l-44 -128h-29h-34q-20 0 -45 1q-25 0 -41 9.5t-25.5 23t-13.5 29.5t-4 30v167h911zM163 247q-12 0 -21 -8.5t-9 -21.5t9 -21.5t21 -8.5q13 0 22 8.5t9 21.5t-9 21.5t-22 8.5zM316 123q-8 -26 -14 -48q-5 -19 -10.5 -37t-7.5 -25t-3 -15t1 -14.5
t9.5 -10.5t21.5 -4h37h67h81h80h64h36q23 0 34 12t2 38q-5 13 -9.5 30.5t-9.5 34.5q-5 19 -11 39h-368zM336 498v228q0 11 2.5 23t10 21.5t20.5 15.5t34 6h188q31 0 51.5 -14.5t20.5 -52.5v-227h-327z" />
    

    
    <glyph glyph-name="jifen" unicode="&#58880;" d="M283.7073 581.4372c-7.3473 15.1138-11.0719 31.3877-11.0719 48.3702 0 62.0289 50.4748 112.4937 112.5163 112.4937 62.0415 0 112.5163-50.4648 112.5163-112.4937h34.97771919287414c0 81.3159-66.1659 147.47-147.494 147.47s-147.494-66.1551-147.494-147.47c0-22.3249 4.9099-43.7433 14.5927-63.6618L283.7073 581.4372zM922.6743 367.9209H890.1329852883714c-5.6404 0-8.2507 1.1642-9.1792 1.7228-4.0294 24.4324-14.3039 60.426-40.2823 95.4703-24.0107 32.391-56.0783 56.8125-95.4522 72.7217 0.9284 39.824 10.5213 72.1281 31.1891 127.9303 2.2546 6.0859 0.9534 12.9192-3.3798 17.751-4.3342 4.8307-10.99 6.8643-17.28 5.2844-68.0087-17.0814-115.8792-53.3938-145.9171-110.8119-35.4734 7.6188-72.3839 11.4742-109.931 11.4742-104.7892 0-192.9191-28.9534-269.4304-88.517-33.3018-25.9404-58.8535-59.6056-75.9446-100.0592-1.7879-4.2321-3.4738-8.5302-5.0638-12.8863-6.3829 2.1785-16.8303 6.4176-27.0328 13.5118-19.7764 13.7507-29.803 31.9633-29.803 54.1333 0 22.6347 10.993 41.4319 28.6897 49.0557 8.8703 3.8214 12.9637 14.1104 9.1412 22.9804-3.8216 8.87-14.11 12.9632-22.9814 9.1408-30.2687-13.0402-49.8273-44.9046-49.8273-81.177 0-34.2698 15.8779-63.1812 45.9168-83.6093 13.7133-9.3257 27.4465-14.775 35.8891-17.5671-7.2294-30.6342-10.1385-63.7698-8.6625-99.0289 3.8336-91.6229 69.7496-157.5812 108.7767-188.805 0.4457-0.3528 0.9194-0.7195 1.4161-1.1023 5.7303-4.424 7.0915-5.4753 4.8519-12.3976-6.1631-18.9761-17.4579-46.0658-17.5718-46.3366-0.07-0.1679-0.1379-0.3378-0.2029-0.5077-4.9289-12.9232-4.5161-27.0107 1.1643-39.6681 5.6854-12.6714 15.9468-22.3558 28.9126-27.2775l64.328-24.3265c5.9092-2.2475 12.0963-3.3877 18.3883-3.3877 21.4244 0 40.9299 13.4479 48.5131 33.4073 0.0849 0.2238 8.6595 22.5647 15.5581 40.9612 1.1773 3.1109 2.0707 4.9886 2.6693 6.0889 2.9151-0.2568 7.5772-1.2322 12.8558-2.3384 16.0728-3.3647 40.3613-8.4493 79.4504-8.4493 35.2895 0 59.2353 2.5613 75.0822 4.2551 7.6831 0.8214 13.7512 1.471 17.7987 1.471 0.6906 0 1.2372-0.02 1.6639-0.047 0.3848-0.7985 0.9354-2.0986 1.636-4.1502 6.0451-17.9998 13.3245-35.456 14.4088-38.0362 7.6421-19.8515 27.0468-33.1625 48.4062-33.1625 6.295 0 12.486 1.1372 18.3973 3.3777l64.2751 24.3365c12.9947 4.9167 23.2882 14.6141 28.9845 27.3075 5.6794 12.6554 6.0851 26.7389 1.1693 39.5842l-10.3114 27.3005c-0.3448 0.9144-0.7665 1.7988-1.2592 2.6422-0.003 0.005-0.041 1.431-0.011 1.539 0.1999 0.7175 1.531 2.4703 5.2587 4.495 46.7732 25.4437 84.1124 65.1918 108.0042 114.995 4.5451 9.5475 7.1644 13.1541 16.7283 13.1541h32.54227057364459c27.5644 0 49.9902 22.4068 49.9902 49.9481v97.57884154543218C972.6654 345.4792 950.2387 367.9209 922.6743 367.9209zM937.6877 220.316c0-8.2564-6.7347-14.9718-15.0124-14.9718H890.1329852883714c-32.5543 0-43.5952-23.1923-48.2872-33.0486-20.9656-43.7034-52.3097-77.1307-93.1527-99.3476-14.6467-7.9586-20.1791-18.4345-22.2408-25.8215-3.4358-12.3037 0.5117-22.6476 2.5973-26.8918l9.9786-26.4211c1.596-4.1682 1.4581-8.7261-0.3868-12.8353-1.8608-4.1472-5.2167-7.313-9.454-8.916l-64.286-24.3405c-1.9418-0.7355-3.9625-1.1082-6.0052-1.1082-7.0075 0-13.3585 4.365-15.8049 10.8616-0.0819 0.2189-0.1689 0.4357-0.2598 0.6496-0.075 0.1789-7.6022 18.0108-13.6183 35.9216-4.716 13.8266-12.7319 27.961-36.4308 27.961-5.9122 0-12.7988-0.7365-21.5173-1.6689-16.0108-1.7118-37.9388-4.0572-71.3625-4.0572-35.4664 0-57.6223 4.6389-72.283 7.7078-8.3967 1.7578-15.0294 3.1459-21.3344 3.1459-23.1972 0-30.5435-19.4248-34.0913-28.8045-6.8676-18.3136-15.3942-40.5315-15.5011-40.8093-2.4794-6.5256-8.8444-10.9096-15.8379-10.9096-2.0277 0-4.0314 0.3707-5.9852 1.1132l-64.338 24.3315c-4.2013 1.5949-7.5372 4.7508-9.394 8.89-1.8208 4.0572-1.9857 8.5512-0.4717 12.6794 1.3591 3.2668 12.1193 29.2582 18.4433 48.729 9.8207 30.3544-10.1775 45.794-16.7483 50.8675-0.3828 0.2958-0.7495 0.5776-1.0174 0.7895-34.3081 27.4484-92.3502 85.1103-95.6041 162.8956-3.9035 93.2268 26.719 170.0967 86.2231 216.4462 70.1293 54.596 151.2317 81.136 247.9391 81.136 39.6358 0 78.46-4.5889 115.3935-13.6378 8.1768-2.0036 16.6144 2.0996 20.0902 9.7634 20.448 45.0874 51.4142 75.4319 96.1478 93.6645-13.7732-40.3436-22.0759-75.0881-21.3134-118.8374 0.1269-7.324 4.8059-13.7916 11.7215-16.206 96.9073-33.8311 119.4679-113.591 124.6806-146.3818 2.2496-13.7966 14.9954-29.9077 43.5123-29.9077h32.54227057364459c8.2777 0 15.0124-6.7514 15.0124-15.0498V220.316025734552zM744.7756 369.1051c-21.1735 0-38.3206-17.1284-38.3206-38.2441 0-21.1317 17.1471-38.28 38.3206-38.28 21.1155 0 38.2057 17.1474 38.2057 38.28C782.9812 351.9768 765.8901 369.1051 744.7756 369.1051z"  horiz-adv-x="1000" />

    
    <glyph glyph-name="zhengcefagui" unicode="&#58900;" d="M205.3601 67.9534c0 18.2856-14.8234 33.1049-33.1018 33.1049h-66.19750400000001c-18.2825 0-33.1028-14.8183-33.1028-33.1049 0-18.2774 14.8204-33.0967 33.1028-33.0967h66.19750400000001C190.5357 34.8577 205.3601 49.676 205.3601 67.9534zM74.3393 332.7506c0-18.2794 14.8204-33.0977 33.1018-33.0977h64.81715200000001c18.2774 0 33.1018 14.8183 33.1018 33.0977 0 18.2845-14.8234 33.1028-33.1018 33.1028H107.441152C89.1597 365.8534 74.3393 351.0351 74.3393 332.7506zM867.3526 727.8876l-66.1975 2.0593c0 18.2856-14.8183 33.1049-33.1018 33.1049H173.63660800000002c-18.2774 0-33.0977-14.8193-33.0977-33.1049v-64.134144h33.097728000000004c0 0 65.8872-6.2116 65.8872-66.2149 0 0 0.6984-66.3173-67.5697-66.3173l-31.4153-1.921 0.6871-130.3357 30.8849 0.0061c0 0 68.1329 0.0061 68.1329-70.3324 0 0-6.3437-64.1495-68.4052-64.1495l-31.1583-0.0133-0.5642-130.3153h32.982016c0 0 66.049-2.0654 66.049-68.267 0 0-0.1188-68.2598-68.3858-68.2598l-29.8076 2.0736-0.4137-66.2149c0 0 37.9269-99.2973 95.8484-99.2973h633.034752c0 0 31.0282 6.2044 31.0282 31.0313V694.783744C900.4503 694.7837 894.2459 727.8876 867.3526 727.8876zM304.6554 531.3585h430.29913600000003v-264.809472H304.65536000000003V531.358464zM801.154-97.5434H238.457856c0 0-34.1361 11.3797-34.1361 34.133l563.7304 0.3441c18.2825 0 33.1018 14.8183 33.1018 33.1028V699.950848l34.133-11.3797v-755.083264C835.287-66.5121 836.3244-97.5434 801.154-97.5434zM106.0608 564.4552h66.19750400000001c18.2774 0 33.1018 14.8183 33.1018 33.0967 0 18.2845-14.8234 33.1028-33.1018 33.1028h-66.19750400000001c-18.2825 0-33.1028-14.8183-33.1028-33.1028C72.9569 579.2745 87.7783 564.4552 106.0608 564.4552zM652.2051 465.1507H387.4068480000001c-9.1423 0-16.5499-7.4127-16.5499-16.555 0-9.1372 7.4076-16.5417 16.5499-16.5417h264.798208c9.1392 0 16.5478 7.4045 16.5478 16.5417C668.7529 457.738 661.3443 465.1507 652.2051 465.1507zM652.2051 365.8534H387.4068480000001c-9.1423 0-16.5499-7.4056-16.5499-16.5478 0-9.1423 7.4076-16.555 16.5499-16.555h264.798208c9.1392 0 16.5478 7.4127 16.5478 16.555C668.7529 358.4468 661.3443 365.8534 652.2051 365.8534z"  horiz-adv-x="1024" />

    
    <glyph glyph-name="yusan" unicode="&#59340;" d="M932.992 268c0 0-43.456 71.2-91.776 71.2-48.224 0-98.912-73.6-98.912-73.6s-53.088 73.504-96.544 73.504c-36.768 0-80.096-50.56-92.64-66.176l0-281.184c0-28.16-2.88-51.968-8.672-71.616-5.76-19.584-14.304-35.488-25.6-47.776-11.264-12.288-25.312-21.248-42.176-26.752-16.8-5.568-36.32-8.288-58.464-8.288-20.16 0-38.176 3.04-54.144 9.088-15.968 6.144-29.408 14.784-40.352 26.112s-19.392 24.896-25.248 40.896c-5.824 15.936-8.8 33.76-8.8 53.408l0 27.136 76.896 0c0-25.472-0.192-58.88 9.088-71.84 9.28-12.896 23.456-19.424 42.528-19.424 12.864 0 31.232 6.368 31.232 6.368s14.048 10.112 18.304 17.76c4.192 7.584 8.48 27.52 8.48 27.52s2.176 22.528 2.176 35.424l0 287.616c-17.216 19.456-59.424 63.008-93.248 63.008-43.424 0-103.776-72.384-103.776-72.384s-57.92 72.384-96.544 72.384c-38.592 0-94.112-72.384-94.112-72.384s-16.928 378.88 366.816 417.472l55.52 77.216 53.12-77.216c395.712-24.128 366.816-417.472 366.816-417.472z"  horiz-adv-x="1024" />

    
    <glyph glyph-name="yonghuzhongxin" unicode="&#58907;" d="M512 812c-282.752 0-512-229.216-512-512s229.216-512 512-512 512 229.216 512 512-229.216 512-512 512zM820.064 21.12c-60.288 29.216-38.112 6.368-116.96 38.816-80.64 33.184-99.744 44-99.744 44l-0.704 76.064c0 0 30.208 22.752 39.616 94.688 18.848-5.408 25.248 21.952 26.272 39.424 1.12 16.864 11.136 69.536-11.904 64.832 4.736 35.136 8.448 66.912 6.72 83.744-5.76 59.04-46.88 120.704-150.72 125.216-88.256-4.512-145.568-66.208-151.36-125.28-1.664-16.832 1.728-48.576 6.432-83.776-23.04 4.768-13.152-47.968-12.128-64.864 1.12-17.472 7.36-44.928 26.272-39.52 9.376-71.904 39.616-94.88 39.616-94.88l-0.768-76.416c0 0-19.136-11.584-99.776-44.736-78.816-32.448-56.704-8.192-116.96-37.344-66.88 73.824-107.936 171.424-107.936 278.88 0 229.76 186.272 416 416 416 229.76 0 416-186.24 416-416 0-107.456-41.088-205.056-107.936-278.88z"  horiz-adv-x="1024" />

    
    <glyph glyph-name="faxian" unicode="&#58911;" d="M272.6912 372.192 238.933333 436.533333l-33.757867-64.375467L136.533333 358.299733l47.786667-53.623467L175.650133 231.733333 238.933333 262.9312 302.216533 231.733333 293.546667 304.676267l47.786667 53.623467L272.6912 372.192zM421.102933 402.4l73.8304 36.420267L568.7296 402.4l-10.069333 85.0944L614.4 550.094933 534.3232 566.24 494.933333 641.333333l-39.389867-75.093333L375.466667 550.094933l55.739733-62.5664L421.102933 402.4zM494.933333 777.866667C221.5936 777.866667 0 556.3072 0 282.933333S221.5936-212 494.933333-212C768.273067-212 989.866667 9.5936 989.866667 282.933333S768.273067 777.866667 494.933333 777.866667zM494.933333-143.733333c-47.138133 0-92.330667 7.918933-134.724267 22.050133l168.823467 292.4544-147.797333 85.333333-168.789333-292.352C124.2112 41.917867 68.266667 155.786667 68.266667 282.933333 68.266667 518.589867 259.2768 709.6 494.933333 709.6 730.589867 709.6 921.6 518.589867 921.6 282.933333 921.6 47.345067 730.589867-143.733333 494.933333-143.733333zM398.336 285.698133l147.797333-85.333333 34.133333 59.118933-147.797333 85.333333L398.336 285.698133zM853.333333 366.389333l-91.5456 18.500267L716.8 470.666667l-44.987733-85.8112L580.266667 366.389333l63.726933-71.509333L632.456533 197.6 716.8 239.2768 801.211733 197.6l-11.605333 97.28L853.333333 366.389333z"  horiz-adv-x="1024" />

    
    <glyph glyph-name="tequan" unicode="&#58912;" d="M659.19488 450.786048l-35.192832 20.318208c-11.107328 6.412288-25.30816 2.607104-31.721472-8.4992l-78.373888-135.747584-78.374912 135.747584c-6.412288 11.107328-20.614144 14.912512-31.721472 8.4992l-35.192832-20.318208c-11.106304-6.413312-14.912512-20.614144-8.4992-31.721472l121.913344-211.15904c4.487168-7.771136 12.785664-11.961344 21.1712-11.584512l21.393408 0c8.389632-0.381952 16.697344 3.80928 21.18656 11.584512l121.91232 211.15904C674.106368 430.171904 670.301184 444.37376 659.19488 450.786048zM512.06656 661.801728c62.011392 0 122.62912-10.79808 180.16768-32.093184 42.871808-15.867904 83.227648-37.230592 120.4224-63.717376l0-131.00032c0-111.280128-32.489472-218.789888-93.954048-310.904832-29.67552-44.474368-65.513472-84.483072-106.51648-118.915072-30.969856-26.006528-64.521216-48.52224-100.118528-67.213312-35.598336 18.691072-69.148672 41.20576-100.119552 67.213312-41.003008 34.433024-76.84096 74.440704-106.51648 118.916096-61.4656 92.11392-93.954048 199.62368-93.954048 310.903808L211.477504 565.991168c37.193728 26.48576 77.549568 47.849472 120.4224 63.717376C389.43744 651.003648 450.055168 661.801728 512.06656 661.801728M512.06656 751.913728c-148.688896 0-284.931072-53.269504-390.70208-141.756416L121.36448 434.990848c0-267.006976 160.724992-496.472064 390.703104-596.93056 229.977088 100.458496 390.701056 329.923584 390.701056 596.93056L902.76864 610.157312C796.997632 698.644224 660.755456 751.913728 512.06656 751.913728L512.06656 751.913728z"  horiz-adv-x="1024" />

    
    <glyph glyph-name="f14" unicode="&#58913;" d="M951.84384 39.164672 858.964992 176.534272c-3.65568 5.244928-11.283456 9.217024-20.578304 10.646528-9.218048 1.350656-19.068928 0-26.377216-3.8144L622.756864 86.277888c-8.582144-4.369408-12.314624-11.121664-9.852928-17.79712 2.622464-6.592512 11.123712-11.838464 21.92896-13.425664l49.975296-7.469056c-49.657856-58.3168-115.441664-93.751296-179.639296-93.751296-125.056 0-264.572928 137.21088-264.572928 333.852672 0 23.199744-31.14496 42.1888-69.599232 42.1888s-69.599232-18.989056-69.599232-42.1888c0-234.381312 177.334272-418.071552 403.770368-418.071552 127.916032 0 242.802688 57.759744 317.723648 157.154304l95.818752-14.45888c2.461696-0.319488 4.845568-0.477184 7.230464-0.477184 0.157696 0 0.157696 0 0.397312 0 16.446464 0 29.794304 8.024064 29.794304 17.954816C956.132352 33.285888 954.543104 36.383488 951.84384 39.164672L951.84384 39.164672zM185.933824 419.894016c-9.295872 1.429504-17.002496 5.243904-20.578304 10.645504L70.729728 570.29504c-4.289536 6.27712-2.224128 13.666304 5.08416 18.671616 7.310336 5.243904 18.910208 7.38816 29.715456 5.799936l95.8976-14.459904c74.923008 99.233792 189.80864 157.233152 317.725696 157.233152 226.435072 0 403.769344-183.770112 403.769344-418.151424 0-23.358464-31.143936-42.1888-69.600256-42.1888-38.453248 0-69.598208 18.830336-69.598208 42.1888 0 196.641792-139.437056 333.853696-264.57088 333.853696-64.196608 0-129.983488-35.434496-179.64032-93.75232l49.975296-7.469056c10.884096-1.826816 19.306496-6.832128 21.927936-13.426688 2.542592-6.674432-1.271808-13.66528-9.85088-18.034688l-189.33248-97.010688c-5.402624-2.78016-12.235776-4.13184-19.147776-4.13184C190.621696 419.416832 188.237824 419.576576 185.933824 419.894016z"  horiz-adv-x="1024" />

    
    <glyph glyph-name="presentation" unicode="&#58963;" d="M976 716 560 716 560 764c0 26.512-21.488 48-48 48-26.512 0-48-21.488-48-48l0-48L48 716C21.488 716 0 694.512 0 668c0-26.512 21.488-48 48-48l48 0 0-544c0-26.512 21.488-48 48-48l252.112 0-158.064-158.064C229.376-138.752 224-150.752 224-164c0-26.512 21.488-48 48-48 13.248 0 25.264 5.376 33.936 14.064L464-39.888 464-164c0-26.512 21.488-48 48-48 26.512 0 48 21.488 48 48l0 124.112 158.064-158.064C726.752-206.624 738.752-212 752-212c26.512 0 48 21.488 48 48 0 13.248-5.376 25.248-14.064 33.936L627.888 28 880 28c26.512 0 48 21.488 48 48L928 620l48 0c26.512 0 48 21.488 48 48C1024 694.512 1002.512 716 976 716zM832 124 192 124 192 620l640 0L832 124z"  horiz-adv-x="1024" />

    
    <glyph glyph-name="tousuzixun" unicode="&#59178;" d="M494.806216 202.603763c-32.776817 27.349905-70.596694 64.126506-103.337694 105.654318-22.984399 29.067013-43.31935 59.614749-22.326386 81.099063L221.844477 539.754502c-21.486217-27.40414-69.062695-157.88796 134.85477-371.498012C571.541976-56.88213 710.124803-8.686455 733.986211 16.653677L590.361348 163.524722C570.263814 143.024829 544.42939 161.259122 494.806216 202.603763zM420.902061 442.211932l0 0.091074c9.299164 9.573029 8.440575 24.060999 0 32.702819l0 0.146333c0 0-115.30575 117.693516-115.341567 117.730355-8.898012 9.116635-23.093897 8.896624-31.900831-0.036839l-40.61464-41.636283 147.205558-150.506852C380.25058 400.703563 420.902061 442.139278 420.902061 442.211932zM718.547981 332.849152l38.258893-5.389754c-0.439016 60.911278-22.436908 119.960139-67.601354 166.273954-44.361118 45.473681-102.552786 68.40188-160.890793 69.662593l6.797078-39.536458c47.083224 0.073678 94.459126-17.831111 130.269147-54.535057C701.885827 431.889843 719.351309 382.10395 718.547981 332.849152zM531.731687 656.900549l3.671773-40.321334c69.301135-2.850931 138.399647-30.492478 191.128683-84.571141 52.656378-53.987588 79.623648-124.710326 82.491069-195.651029l39.738654-4.220115c-4.494545 82.359776-36.340115 162.126494-97.692906 225.029126C689.863533 619.922357 611.884406 652.168782 531.731687 656.900549zM785.819817 102.137607c0 0-112.07197 114.350374-112.126208 114.405633-8.861171 9.061376-23.057057 8.896624-31.881388-0.055259l-40.634084-41.599444 144.008619-147.273205c0 0 40.669901 41.490973 40.634084 41.546232l0.109498 0.072655c9.299164 9.53619 8.367918 24.042579-0.109498 32.775474L785.82084 102.137607zM871.216171 748.998107 152.781782 748.998107c-49.595544 0-89.798798-40.193421-89.798798-89.796142l0-718.404953c0-49.584302 40.204278-89.796142 89.798798-89.796142l718.434389 0c49.586334 0 89.799822 40.21184 89.799822 89.796142L961.015993 659.201965C961.015993 708.804686 920.802505 748.998107 871.216171 748.998107zM904.889441-64.81173c0-15.492856-12.552388-28.062126-28.063276-28.062126L147.172811-92.873856c-15.502701 0-28.063276 12.56927-28.063276 28.062126L119.109535 664.810706c0 15.492856 12.560575 28.062126 28.063276 28.062126l729.653355 0c15.510888 0 28.063276-12.56927 28.063276-28.062126L904.889441-64.81173zM603.059051 405.526405c18.836769-19.311835 31.589733-41.198308 27.479967-66.337871l33.928084-9.700943c2.082513 36.264948-10.340933 73.133647-37.253965 100.720959-27.277344 27.971052-63.854876 40.669258-99.665921 38.129412l12.990381-39.316447C562.973482 430.866536 585.976301 423.047454 603.059051 405.526405z"  horiz-adv-x="1024" />

    
    <glyph glyph-name="fenxiang" unicode="&#59218;" d="M837.7174709374999 839.6542762500001c-81.1573040625 0-146.9503640625-63.752019375-146.9503640625-142.3907615625 0-8.9476125 0.8602171875-17.6965396875 2.4914690624999998-26.189206875L300.0806684375 479.55521625c-26.8868634375 28.76421375-65.736615 46.83554625-108.9427678125 46.83554625-81.16182 0-146.945848125-63.752019375-146.945848125-142.3907615625 0-78.6398709375 65.78402812499999-142.3907615625 146.945848125-142.3907615625 42.169828125 0 80.19097125 17.22014625 106.993168125 44.7990215625l232.668399375-150.302049375c-10.4558146875-19.57953375-16.36896-41.80406625-16.36896-65.369724375 0-78.63422625 65.7885440625-142.3907615625 146.945848125-142.3907615625 81.16182 0 146.9503640625 63.75653531249999 146.9503640625 142.3907615625 0 78.643258125-65.7885440625 142.3952775-146.9503640625 142.3952775-42.174343125 0-80.19097125-17.22014625-106.993168125-44.7990215625L321.7147896875 318.6336618749999c10.4603296875 19.575018749999998 16.3734759375 41.79955125 16.3734759375 65.366338125 0 22.8950953125-5.5823803125 44.5201846875-15.4918096875 63.689930624999995l383.6658478125 185.8791375c24.1301053125-46.66395375 73.92448125-78.7008309375 131.45403843749997-78.7008309375 81.16182 0 146.9503640625 63.752019375 146.9503640625 142.3952775C984.667835 775.9022568749999 918.8781621875 839.6542762500001 837.7174709374999 839.6542762500001L837.7174709374999 839.6542762500001zM661.3763571875 157.55519249999998c53.2002496875 0 90.46616250000001-39.3046959375 90.46616250000001-86.81870625 0-52.387445625-42.406895625000004-86.81870625-90.46616250000001-86.81870625-48.1710271875 0-90.46164656250001 35.938334062500005-90.46164656250001 86.81870625C570.9147096875 122.66221406249997 612.4704190625 157.55519249999998 661.3763571875 157.55519249999998L661.3763571875 157.55519249999998zM191.13790156250002 298.30567124999993c-51.72365625 0-89.3372690625 37.533461249999995-89.3372690625 85.6954575 0 48.3019790625 36.4406915625 85.68981281250001 89.3372690625 85.68981281250001 52.3626103125 0 89.332753125-37.6802175 89.332753125-85.68981281250001C280.4706546875 337.8914615625 239.10347000000002 298.30567124999993 191.13790156250002 298.30567124999993L191.13790156250002 298.30567124999993zM837.7174709374999 610.4402924999999c-49.9230703125 0-90.46164656250001 36.812098125-90.46164656250001 86.8232221875 0 44.8159546875 31.5074259375 86.81870625 90.46164656250001 86.81870625 54.4996059375 0 90.46616250000001-38.6160703125 90.46616250000001-86.81870625C928.1825046875 651.2035181250001 887.137055 610.4402924999999 837.7174709374999 610.4402924999999L837.7174709374999 610.4402924999999zM837.7174709374999 610.4402924999999"  horiz-adv-x="1024" />

    
    <glyph glyph-name="indexjifen" unicode="&#59027;" d="M675.208164 445.235802l-97.868921 0 40.6085 40.603767c9.801628 9.807367 9.801628 25.706475 0 35.507702-9.810838 9.800203-25.707528 9.800203-35.509157 0l-69.848626-69.846788-69.358443 69.350484c-9.763764 9.768481-25.603147 9.768481-35.366911 0-9.768881-9.760295-9.768881-25.601074 0-35.361369l40.250329-40.252773-89.675996 0c-36.831322 0-66.687504-29.859052-66.687504-66.684772 0-31.077809 21.252894-57.18849 50.01614-64.591087l0-210.498178c0-13.814634 11.197475-25.00858 25.008582-25.00858l300.096838 0c13.8152 0 25.007558 11.193947 25.007558 25.00858L691.880552 313.95892c28.765293 7.402597 50.01614 33.513278 50.01614 64.591087C741.896692 415.376751 712.04358 445.235802 675.208164 445.235802zM358.438938 361.879326c-9.207063 0-16.671364 7.463995-16.671364 16.671705s7.464301 16.671705 16.671364 16.671705l133.380125 0 0-33.343409L358.438938 361.879326zM641.863389 128.467275 391.783714 128.467275 391.783714 311.859096l100.035349 0 0-108.364033c0-13.814634 11.197475-25.007557 25.006535-25.007557 13.8152 0 25.007558 11.192923 25.007558 25.007557L541.833156 311.859096l100.030233 0L641.863389 128.467275zM675.208164 361.879326 541.833156 361.879326l0 33.343409L675.208164 395.222735c9.208086 0 16.672388-7.463995 16.672388-16.671705S684.416251 361.879326 675.208164 361.879326zM512.658525 812c-283.13689 0-512.659548-229.513254-512.659548-512.636496 0-283.125289 229.522658-512.638543 512.659548-512.638543 283.13689 0 512.657501 229.513254 512.657501 512.638543C1025.316026 582.487769 795.795414 812 512.658525 812zM508.466891-174.894917c-261.321154 0-473.157287 211.744565-473.157287 472.931193 0 261.193791 211.836132 472.937332 473.157287 472.937332 261.310921 0 473.151147-211.743542 473.151147-472.937332C981.618037 36.849648 769.776788-174.894917 508.466891-174.894917z"  horiz-adv-x="1024" />

    
    <glyph glyph-name="falvfagui" unicode="&#58915;" d="M807.36 661.216l-140.608-312.192L625.856 349.024l150.016 330.688-231.68 0 0-772.544c47.808-1.856 291.264-80.832 291.264-80.832l0-39.744L180.8-213.408l0 42.24c0 0 243.776 78.336 281.216 78.336L462.016 679.648 243.072 679.648l150.016-330.688-40.96 0L211.52 661.216 70.784 349.024 29.888 349.024l150.912 334.272L180.8 721.76l2.56 0 249.216 0c0 50.432 33.856 91.648 73.28 91.648 41.728 0 73.28-43.52 73.28-91.648l256.384 0 0-33.024 153.472-339.776-41.024 0L807.36 661.216zM395.648 305.76c0-100.352-69.696-191.744-184.128-191.744-111.936 0-184.128 91.392-184.128 191.744C27.328 305.568 395.648 305.568 395.648 305.76zM628.352 305.76c0-0.128 368.256-0.128 368.256 0 0-100.352-69.632-191.744-184.128-191.744C700.608 114.016 628.352 205.344 628.352 305.76z"  horiz-adv-x="1024" />

    
    <glyph glyph-name="circularmobile" unicode="&#59206;" d="M512 60.60395833333337m-34.99125 0a0.54673828125 0.54673828125 0 1 1 69.9825 0 0.54673828125 0.54673828125 0 1 1-69.9825 0ZM483.0298615235376 681.6465182053275l57.844190258143925 0c5.380854907734319 0 9.656712825487483 4.3239012651436495 9.656712825487483 9.704756172877971 0 5.284768212953348-4.275857917753164 9.608669478097-9.656712825487483 9.608669478097L483.0298615235376 700.9599438563025c-5.332811560343835 0-9.608669478097-4.3239012651436495-9.608669478097-9.608669478097C473.469235392831 686.0184628178616 477.69704996319365 681.6465182053275 483.0298615235376 681.6465182053275zM326.41989325635257 637.3724288095957l371.16021348729475 0 0-530.0120331643783-371.16021348729475 0 0 530.0120331643783ZM512 823.3333333333334C263.36 823.3333333333334 62 621.9133333333334 62 373.33333333333326c0-248.57999999999998 201.35999999999999-450 450-450 248.57999999999998 0 450 201.42000000000002 450 450C962 621.9133333333334 760.58 823.3333333333334 512 823.3333333333334zM704.72 72.19333333333327c0-33.24-27.12-60.36-60.17999999999999-60.36L379.46000000000004 11.833333333333258c-33.120000000000005 0-60.24 27.12-60.24 60.36L319.22 674.5933333333332c0 33.06 27.12 60.24 60.24 60.24l265.08 0c33.06 0 60.17999999999999-27.18 60.17999999999999-60.24L704.72 72.19333333333327z"  horiz-adv-x="1024" />

    
    <glyph glyph-name="wodezhanghu" unicode="&#58933;" d="M965.568 578.336l0 101.248c0 40.96-33.216 74.176-74.176 74.176L132.48 753.76c-40.96 0-74.176-33.216-74.176-74.176l0-101.248L965.568 578.336zM965.568 484.512 58.304 484.512l0.064-564.032c0-40.96 33.216-74.176 74.176-74.176l759.04 0c40.96 0 74.176 33.216 74.176 74.176L965.568 484.512zM559.36 369.568l223.168 0c22.72 0 41.152-18.432 41.152-41.152 0-22.72-18.432-41.152-41.152-41.152L559.36 287.264c-22.72 0-41.152 18.432-41.152 41.152C518.144 351.136 536.576 369.568 559.36 369.568zM288.128 376.288c50.176 0 90.88-40.704 90.88-90.88s-40.704-90.88-90.88-90.88-90.88 40.704-90.88 90.88S237.952 376.288 288.128 376.288zM437.632-36.256 139.776-36.256l0 89.728c0 48.768 39.552 88.384 88.384 88.384l121.088 0c48.768 0 88.384-39.552 88.384-88.384L437.632-36.256zM712.512-36.256 559.36-36.256c-22.72 0-41.152 18.432-41.152 41.152 0 22.72 18.432 41.152 41.152 41.152l153.152 0c22.72 0 41.152-18.432 41.152-41.152C753.664-17.824 735.232-36.256 712.512-36.256zM856.64 125.472 553.216 125.472c-22.72 0-41.152 18.432-41.152 41.152 0 22.72 18.432 41.152 41.152 41.152l303.424 0c22.72 0 41.152-18.432 41.152-41.152C897.792 143.904 879.36 125.472 856.64 125.472z"  horiz-adv-x="1024" />

    
    <glyph glyph-name="del" unicode="&#58997;" d="M621.045-3.655c13.662 0 24.738 16.985 24.738 37.939v443.761c0 20.952-11.076 37.939-24.738 37.939h-23.402c-13.664 0-24.738-16.986-24.738-37.939v-443.761c0-20.953 11.075-37.939 24.738-37.939h23.402zM425.593-3.655c13.662 0 24.738 16.985 24.738 37.939v443.761c0 20.952-11.076 37.939-24.738 37.939h-23.402c-13.664 0-24.738-16.986-24.738-37.939v-443.761c0-20.953 11.075-37.939 24.738-37.939h23.402zM841.254 550.185h-43.289c-18.881 0-34.189-14.726-34.189-32.892v-564.63l-503.404 0v567.25c0 16.719-14.087 30.271-31.464 30.271h-48.739c-17.377 0-31.464-13.553-31.464-30.271v-604.163c-0.067-0.941-0.113-1.888-0.113-2.847v-32.147c0-21.959 17.801-39.76 39.759-39.76h646.535c21.959 0 39.759 17.8 39.759 39.76v27.881c0.519 2.277 0.799 4.64 0.799 7.067l0 601.588c-0.001 18.167-15.31 32.892-34.191 32.892zM890.558 681.064h-295.196v22.141c0 18.133-14.702 32.833-32.833 32.833h-101.822c-18.134 0-32.833-14.7-32.833-32.833v-22.141l-295.196-0c-22.221 0-40.233-18.013-40.233-40.233v-31.199c0-22.219 18.013-40.233 40.233-40.233h757.88c22.221 0 40.233 18.014 40.233 40.233v31.199c0 22.22-18.012 40.233-40.233 40.233z"  horiz-adv-x="1024" />

    
    <glyph glyph-name="zhuanti" unicode="&#59146;" d="M512.128425-82.572232c211.386408 0 382.76359 171.802878 382.76359 383.743918S733.750965 683.438972 519.602653 683.438972c-214.147288 0-390.239865-170.3242-390.239865-382.266263S300.737924-82.572232 512.128425-82.572232zM180.288644 301.200338c0 183.719278 153.646356 330.549392 339.278193 330.549392 185.631838 0 324.326667-146.830113 324.326667-330.549392 0-183.719278-148.555407-332.667635-331.801918-332.667635C328.843028-31.467297 180.288644 117.48106 180.288644 301.200338zM597.274664 516.0885M723.200678 351.520397 563.898509 353.856605 509.187443 503.496717 457.733561 352.717665 297.643446 326.63666 426.030511 251.389886 382.334313 98.177412 512.596076 189.916812 644.794957 101.031413 597.803713 253.256396Z"  horiz-adv-x="1024" />

    
    <glyph glyph-name="daorulingyong" unicode="&#59159;" d="M192 300 192 300 192 300ZM1024 498.4l-83.2-601.6c-6.4-57.6-57.6-108.8-134.4-108.8L224-212c-70.4 0-121.6 51.2-134.4 108.8L0 498.4l89.6 0L32 677.6 19.2 716 64 728.8 441.6 812l12.8 0 12.8 0 224-44.8 25.6-6.4 6.4-25.6 76.8-236.8L1024 498.4 1024 498.4zM396.8 178.4C422.4 255.2 499.2 300 640 306.4c0 12.8 0 25.6 0 38.4C377.6 376.8 262.4 306.4 217.6 178.4L115.2 178.4 211.2 108l96-70.4L409.6 108l96 70.4L396.8 178.4 396.8 178.4zM710.4 248.8 614.4 178.4 518.4 108l102.4 0c-25.6-76.8-102.4-128-243.2-134.4 0-12.8 0-25.6 0-38.4 262.4-32 377.6 44.8 422.4 172.8l102.4 0-96 70.4L710.4 248.8 710.4 248.8zM192 498.4l505.6 0-51.2 166.4C582.4 652 473.6 626.4 473.6 626.4L422.4 645.6 403.2 716 140.8 658.4 192 498.4 192 498.4zM480 722.4l6.4-25.6c19.2 6.4 38.4 6.4 57.6 12.8L480 722.4 480 722.4zM192 613.6l12.8-32L403.2 620 390.4 652 192 613.6 192 613.6zM211.2 549.6l12.8-32L422.4 556 409.6 594.4 211.2 549.6z"  horiz-adv-x="1024" />

    
    <glyph glyph-name="refurbish" unicode="&#59220;" d="M926.829 267.714c0.335 6.856 0.51 13.753 0.51 20.692 0 229.387-185.954 415.342-415.342 415.342-79.914 0-154.525-22.602-217.853-61.726-15.051-8.086-25.284-23.972-25.284-42.251 0-26.475 21.462-47.937 47.939-47.937 10.238 0 19.719 3.22 27.506 8.688 48.746 30.115 106.182 47.509 167.692 47.509 176.525 0 319.627-143.102 319.627-319.627 0-6.953-0.248-13.848-0.687-20.692h-92.915l142.988-204.771 142.99 204.773h-97.171zM707.203 24.166c-10.239 0-19.719-3.221-27.507-8.69-48.748-30.116-106.184-47.511-167.694-47.511-176.525 0-319.626 143.105-319.626 319.63 0 6.953 0.249 13.848 0.686 20.691h92.915l-142.988 204.773-142.989-204.773h97.172c-0.337-6.855-0.51-13.753-0.51-20.691 0-229.386 185.954-415.343 415.342-415.343 79.915 0 154.526 22.602 217.853 61.727 15.050 8.084 25.283 23.971 25.283 42.253 0 26.472-21.461 47.934-47.937 47.934z"  horiz-adv-x="1024" />

    
    <glyph glyph-name="weibiaoti1" unicode="&#58884;" d="M524.343296 120.68736l204.55424 204.5952c10.549248 10.549248 24.56576 16.347136 39.4752 16.347136 14.921728 0 28.923904-5.797888 39.473152-16.347136l18.5856-18.589696c21.757952-21.768192 21.757952-57.1904 0-78.948352l-204.56448-204.61568-156.34432-58.202112L524.343296 120.68736zM521.793536 21.179136l82.051072 30.568448 2.207744 2.209792-51.163136 51.152896-2.244608-2.256896L521.793536 21.179136zM629.23776 77.13664l134.414336 134.44096-51.167232 51.175424-134.404096-134.447104L629.23776 77.13664zM786.829312 234.769152l16.529408 16.515072c8.978432 8.988672 8.978432 23.601152 0.012288 32.591872l-18.571264 18.5856c-4.360192 4.345856-10.149888 6.731776-16.308224 6.731776-6.156288 0-11.95008-2.387968-16.293888-6.731776l-16.510976-16.541696L786.829312 234.769152zM842.743808-14.984448c-0.038912 1.374208-0.237568 2.762752-0.70656 4.839424l-1.009664 7.40352c-7.849984 57.380864-27.11552 110.706688-55.595008 157.124608l-29.241344-28.409856c22.888448-39.133184 38.83008-83.28192 45.7728-130.217984l0.741376-5.005312 0.8192-0.083968 0-6.117376c0-10.811392 8.814592-19.621888 19.634176-19.621888 10.702848 0 19.417088 8.599552 19.595264 19.795968L842.743808-14.984448zM652.931072 282.829568c-7.448576 4.182016-15.015936 8.167424-22.790144 11.833344l-8.556544 4.018176 7.168 6.15424c48.334848 41.44128 76.06272 101.502976 76.06272 164.798464 0 119.728128-97.409024 217.11872-217.122816 217.11872-119.730176 0-217.131008-97.390592-217.131008-217.11872 0-63.295488 27.717632-123.355136 76.054528-164.798464l7.176192-6.15424-8.542208-4.018176c-113.881088-53.57568-192.714752-164.765696-210.894848-297.404416l-1.275904-9.330688 0-3.381248c0-10.811392 8.818688-19.621888 19.625984-19.621888 10.825728 0 19.644416 8.810496 19.644416 19.595264l-0.264192 2.326528 1.32096 8.9088c19.120128 129.140736 105.629696 237.635584 220.409856 276.43904l2.291712 0.77824 2.197504-0.997376c28.39552-12.91264 58.466304-19.46624 89.387008-19.46624 30.906368 0 60.9792 6.5536 89.366528 19.46624l2.207744 0.997376 2.291712-0.77824c15.425536-5.21216 30.273536-11.769856 44.57472-19.382272L652.931072 282.829568zM573.851648 313.66016c-15.142912-8.402944-31.438848-14.536704-48.439296-18.223104-12.617728-2.725888-25.30304-4.087808-37.718016-4.087808-12.443648 0-25.122816 1.36192-37.707776 4.087808-16.982016 3.66592-33.288192 9.80992-48.461824 18.233344-56.823808 31.502336-92.123136 91.25888-92.123136 155.961344 0 98.299904 79.978496 178.284544 178.290688 178.284544 98.295808 0 178.266112-79.98464 178.266112-178.284544C665.960448 404.933376 630.679552 345.174784 573.851648 313.66016z"  horiz-adv-x="1024" />

    
    <glyph glyph-name="fuwu" unicode="&#58917;" d="M762.105511 112.438362c-18.665895 16.89632-44.209721 32.32464-76.065132 46.080502-52.828603 22.739699-104.786219 33.059663-106.989242 33.527869l-12.423825 2.403391-59.902812-89.825083-59.740269 89.623693-12.255148-2.169288c-2.205068-0.368022-54.295581-9.48169-107.18961-31.721492-31.956617-13.356149-57.635385-28.918388-76.333993-45.946583-25.513157-23.342847-38.402122-49.789351-38.402122-78.50737 0-18.998138 2.604781-36.264525 7.948263-52.924697l4.205679-13.158848 562.325038 0 4.577791 12.658951c5.807599 16.194011 8.780403 34.157596 8.780403 53.425617C800.64053 63.584402 787.685117 89.430824 762.105511 112.438362L762.105511 112.438362zM759.569223 7.921004 253.575134 7.921004c-1.768552 8.914322-2.670207 18.098527-2.670207 27.981975 0 17.80002 8.44816 34.227112 25.814731 50.155328 15.39254 14.15762 37.329745 27.248997 65.044904 38.936777 34.528686 14.460216 69.657452 23.205861 87.489163 27.08032l77.470774-116.270564 77.269384 116.003748c17.963585-4.239414 52.991146-13.622965 87.454405-28.583078 75.230948-32.522963 91.056936-65.449729 91.056936-87.321508C762.505224 26.019531 761.506452 16.634958 759.569223 7.921004L759.569223 7.921004zM342.16632 337.235685c0 0.066449 0 0.132897-0.066449 0.199346l28.083181 0c7.813321-77.102751 65.947581-136.908447 136.541446-136.908447 32.69164 0 62.742719 12.822516 86.35136 34.261869l-86.35136 0c-56.903429 0-103.115806 53.862132-103.115806 120.27792s46.212377 120.27792 103.115806 120.27792c51.889123 0 94.834278-44.812869 102.011738-103.114784l34.493928 0c-7.545483 77.270406-65.815707 137.408344-136.505666 137.408344-70.92713 0-129.297537-60.439512-136.64163-138.008425l-35.162502 0 0 0c-11.419942 94.164682 76.901361 171.768352 171.805155 171.768352 84.579741 0 154.437561-62.643557 168.294629-137.409366 1.336126-7.112034 2.538333-16.663239 3.139436-25.278032-4.64015-54.629868-56.567098-77.736568-119.944655-77.736568-18.431792 0-35.863789 3.137392-51.48941 8.849918l0-37.401305c16.093827-3.77223 33.457331-5.842357 51.48941-5.842357 71.360578 0 129.092058 26.645849 146.12332 68.653569l0.736045 0c5.076665 16.428114 7.746873 33.724148 7.746873 51.556881 0 104.319035-92.26221 188.932511-206.095648 188.932511-113.87024 0-206.165163-84.614499-206.165163-188.932511 0-17.896115 0.267839-33.72517 3.639333-51.556881L342.16632 337.23364 342.16632 337.235685zM342.16632 337.235685M843.315802 748.759428 182.752277 748.759428c-99.509186 0-180.117351-80.641901-180.117351-180.117351l0-600.526793c0-99.473406 80.609187-180.115306 180.117351-180.115306l660.563524 0c99.509186 0 180.152109 80.642923 180.152109 180.115306L1023.46791 568.642077C1023.466888 668.11855 942.823965 748.759428 843.315802 748.759428L843.315802 748.759428zM963.159251-22.432672c0-70.989489-53.792617-128.559448-124.785173-128.559448L191.466232-150.992119c-70.992556 0-128.526735 57.568937-128.526735 128.559448L62.939497 560.160182c0 70.992556 57.533157 128.562515 128.526735 128.562515l646.907846 0c70.992556 0 124.785173-57.568937 124.785173-128.562515L963.159251-22.432672 963.159251-22.432672zM783.277025 148.27046"  horiz-adv-x="1024" />

    
    <glyph glyph-name="shangyiye" unicode="&#58928;" d="M629.211584 128.48268c0-27.459104-1.633255-45.680108-23.273887-31.797438l-90.339431 62.01266c-21.640632 13.83163-57.010816 36.493047-78.600409 50.324677l-96.97453 62.114739C318.433734 284.968948 318.02542 307.579325 339.563973 321.513034l96.004785 62.01266c21.640632 13.83163 55.326521 36.493047 76.967153 50.324677l93.503863 62.063699c21.538554 13.83163 23.171809-4.287295 23.171809-31.746399L629.211584 128.48268zM513.607736 757.745302c253.715995 0 459.353038-205.637043 459.353038-459.353038s-205.637043-459.353038-459.353038-459.353038-459.353038 205.637043-459.353038 459.353038S259.891741 757.745302 513.607736 757.745302M513.607736 808.784529c-281.430295 0-510.392264-228.96197-510.392264-510.392264s228.96197-510.392264 510.392264-510.392264 510.392264 228.96197 510.392264 510.392264S795.03803 808.784529 513.607736 808.784529L513.607736 808.784529z"  horiz-adv-x="1024" />

    
    <glyph glyph-name="xiayiye" unicode="&#58935;" d="M396.032 466.2464c0 27.5456 1.6384 45.7728 23.2448 31.8464l93.7984-62.2592c21.7088-13.8752 55.5008-36.608 77.2096-50.4832l96.3072-62.208c21.6064-13.9264 21.1968-36.6592-0.4608-50.4832l-97.28-62.3104c-21.6576-13.8752-57.1392-36.608-78.848-50.4832l-90.624-62.208c-21.7088-13.8752-23.3472 4.352-23.3472 31.8976L396.032 466.2464zM512 760.8c254.5152 0 460.8-206.2848 460.8-460.8s-206.2848-460.8-460.8-460.8-460.8 206.2848-460.8 460.8S257.4848 760.8 512 760.8M512 812C229.6832 812 0 582.3168 0 300s229.6832-512 512-512 512 229.6832 512 512S794.3168 812 512 812L512 812z"  horiz-adv-x="1024" />

    
    <glyph glyph-name="shuiwu" unicode="&#58918;" d="M408.562 276.723l79.712 30.492v-504.449l-79.712 26.354v447.603zM299.798 280.614v-417.722l89.004-28.387v480.346l99.473 37.84v150.284l-99.473-36.609v114.013l99.473 37.883v153.132l-285.331-109.253v-152.874l96.854 36.704v-112.372l-96.854-35.645v-154.052l96.854 36.715zM202.944 198.139l76.415 29.053v-357.122l-76.415 23.732v304.337zM617.328-170.377l-84.146-26.857v452.841l84.146-30.734v-395.249zM818.841 151.628l-71.844 26.123v-209.413l-24.563-6.62v265.719l96.407-35.266v280.138l-285.658 105.021v-282.076l107.123-38.167v-420.179l178.534 56.896v257.825zM633.85 440.053l97.1-36.525v-75.439l-97.1 36.54v75.423zM818.841 668.69v-152.98l-107.422 39.062v154.038l107.422-40.121zM656.474 574.778l-123.292 44.896v154.051l123.292-45.395v-153.552z"  horiz-adv-x="1024" />

    
    <glyph glyph-name="xinxi1" unicode="&#59275;" d="M952.052364 591.338345 70.718645 591.338345l0.852414-0.854461 0-581.127404 880.206036 0L951.777095 591.063075 952.052364 591.338345zM510.86413 150.152157 648.306432 287.593436l251.668857-247.537769-775.788895 0 249.532193 247.567445L510.86413 150.152157zM510.890736 193.592528 144.921647 560.427334l732.803895 0L510.890736 193.592528zM352.036775 309.355065 102.270245 61.556353l0 498.15569L352.036775 309.355065zM921.078932 62.359648 670.01485 309.301853l251.064083 251.063059L921.078932 62.359648z"  horiz-adv-x="1024" />

    
    <glyph glyph-name="rongyuzhengshu" unicode="&#58998;" d="M354.016-90.016c-39.008 0-227.52 0-227.52 0-35.296 0-64 29.632-64 66.016l0 709.408c0 36.416 28.704 66.016 64 66.016l666.624 0c35.328 0 64-29.632 64-66.016 0 0 0-210.912 0-241.408s-31.104-27.68-31.104-27.68-32.896-1.824-32.896 29.696c0 57.152 0 179.296 0 207.008 0 36.512-41.632 32.576-41.632 32.576l-589.984 1.76c0 0-34.944 3.68-34.944-35.328 0-33.984 0-521.984 0-647.008 0-18.464 9.216-29.088 23.968-29.216 53.568-0.48 180.384-1.568 205.472-1.568 32 0 32.448-31.232 32.448-31.232S393.024-90.016 354.016-90.016zM218.656 563.936c0 17.6 14.4 32 32 32l386.304 0c17.6 0 32-14.4 32-32l0 0c0-17.6-14.4-32-32-32l-386.304 0C233.088 531.936 218.656 546.336 218.656 563.936L218.656 563.936zM218.656 408.448c0 17.6 14.4 32 32 32l299.04 0c17.6 0 32-14.4 32-32l0 0c0-17.6-14.4-32-32-32l-299.04 0C233.088 376.448 218.656 390.848 218.656 408.448L218.656 408.448zM218.656 252.96c0 17.6 14.4 32 32 32l179.68 0c17.6 0 32-14.4 32-32l0 0c0-17.6-14.4-32-32-32l-179.68 0C233.088 220.96 218.656 235.36 218.656 252.96L218.656 252.96zM218.656 97.472c0 17.6 14.4 32 32 32l179.68 0c17.6 0 32-14.4 32-32l0 0c0-17.6-14.4-32-32-32l-179.68 0C233.088 65.472 218.656 79.872 218.656 97.472L218.656 97.472zM959.616-56.416l-96.832 180.608c10.016 22.496 15.776 47.296 15.904 73.472 0.384 100.928-81.152 183.104-182.176 183.456-100.928 0.448-183.2-81.12-183.488-182.08-0.128-26.816 5.856-52 16.064-75.008l-98.624-178.304c-3.168-5.664-2.688-12.8 1.248-18.016 3.936-5.248 10.56-7.648 16.96-6.208l83.552 18.88 28.288-79.68c2.208-6.176 7.84-10.432 14.304-11.072 0.448 0.032 0.8 0 1.312 0 6.048-0.064 11.744 3.264 14.688 8.672l86.176 159.136c6.048-0.672 11.936-1.92 18.112-1.984 5.696 0 11.072 1.12 16.672 1.728l86.816-159.68c2.944-5.504 8.512-8.768 14.56-8.736 0.416-0.096 0.8-0.032 1.312 0.032 6.496 0.512 12.128 4.736 14.432 10.816l28.8 79.488 83.36-19.392c6.368-1.6 13.056 0.864 16.928 6.016C962.112-69.184 962.624-62.112 959.616-56.416zM575.424-34.336l-10.368 29.312c-1.44 4-5.568 6.336-9.792 5.344l-31.04-6.944 43.936 78.88c16.128-16.288 29.312-23.424 47.328-33.344L575.424-34.336zM695.136 82.176c-64.32 0.352-116.544 52.864-116.224 117.248 0.192 64.32 52.736 116.576 117.152 116.256 64.352-0.224 116.48-52.736 116.224-117.088C812.064 134.176 759.552 82.016 695.136 82.176zM838.304-12.448c-4.896 1.216-9.824-1.632-11.488-6.208l-12.384-34.624-47.072 86.496c21.312 11.648 36.832 20.16 55.968 39.296l51.584-93.216L838.304-12.448z"  horiz-adv-x="1024" />

    
    <glyph glyph-name="star-outline" unicode="&#59176;" d="M749.548 168.381l0.028 0.166 0.245 0.423 0.103-0.315zM905.989 356.806c7.458 7.824 8.544 20.069 1.969 29.131-3.601 4.966-8.837 8.016-14.433 9.026l-0.028 0.086-249.451 36.443-0.384 0.52 0.209-0.638-0.398 0.167-0.199 0.223-111.841 225.876-0.060-0.001c-5.156 9.499-16.475 14.293-27.119 10.818-5.834-1.903-10.342-5.951-13.023-10.965h-0.092l-111.148-225.951-1.536-0.536-248.056-36.1c-10.63-1.955-18.698-11.229-18.698-22.425 0-6.135 2.448-11.677 6.384-15.78l-0.029-0.086 180.471-175.916 0.001-0.346-42.858-247.768 0.048-0.036c-1.441-10.712 4.871-21.26 15.514-24.735 5.831-1.903 11.861-1.297 16.983 1.171l0.073-0.053 223.308 116.995 0.614-0.196-0.487 0.355 0.008 0.002 0.725-0.175 222.736-117.258c9.745-4.675 21.728-1.923 28.315 7.129 3.609 4.96 4.89 10.882 4.124 16.516l0.072 0.053-42.423 248.5 180.709 175.953zM724.868 180.809l0.025 0.148 0.219 0.379 0.092-0.282-0.336-0.245zM674.79 197.718l38.431-224.062-201.221 105.788-201.22-105.788 38.428 224.062-162.79 158.682 224.97 32.691 100.611 203.858 100.608-203.858 224.973-32.691-162.792-158.682z"  horiz-adv-x="1024" />

    
    <glyph glyph-name="xingxing" unicode="&#59177;" d="M484.932016 624.82604c14.722306 31.228235 38.818097 31.228235 53.538357 0l63.772442-135.237077c14.721283-31.225165 54.809303-61.039191 89.064478-66.246797l137.750317-20.945031c34.254152-5.206582 42.479487-29.66974 18.286482-54.360072l-101.8292-103.877859c-24.211425-24.692379-39.442314-72.752977-33.865295-106.795305l24.530696-149.630902c5.578042-34.048467-14.669094-48.249911-45.000913-31.556717l-124.33375 68.417229c-30.331819 16.685008-79.960123 16.685008-110.291942 0l-124.340913-68.417229c-30.324656-16.693194-50.582025-2.492774-44.99682 31.556717l24.51637 149.630902c5.585205 34.043351-9.655917 82.10395-33.858132 106.795305l-101.81078 103.875812c-24.202215 24.690332-15.97688 49.154513 18.283412 54.361095l137.747247 20.945031c34.260292 5.206582 74.340125 35.021631 89.062432 66.246797L484.932016 624.82604z"  horiz-adv-x="1024" />

    
    <glyph glyph-name="weixin" unicode="&#59376;" d="M693.12 464.736c11.776 0 23.36-0.896 35.008-2.176-31.36 146.048-187.456 254.528-365.696 254.528C163.2 717.088 0 581.344 0 408.864c0-99.52 54.272-181.248 145.024-244.736L108.8 55.136l126.72 63.488c45.312-8.896 81.664-18.112 126.912-18.112 11.392 0 22.656 0.512 33.792 1.344-7.04 24.256-11.2 49.6-11.2 76.032C385.088 336.224 521.024 464.736 693.12 464.736zM498.304 562.976c27.392 0 45.376-17.984 45.376-45.248 0-27.136-17.984-45.312-45.376-45.312-27.072 0-54.336 18.176-54.336 45.312C443.968 545.056 471.168 562.976 498.304 562.976zM244.672 472.416c-27.2 0-54.592 18.176-54.592 45.312 0 27.264 27.392 45.248 54.592 45.248S289.92 545.056 289.92 517.728C289.92 490.592 271.872 472.416 244.672 472.416zM1024 182.24c0 144.896-145.024 262.976-307.904 262.976-172.48 0-308.224-118.144-308.224-262.976 0-145.28 135.808-262.976 308.224-262.976 36.096 0 72.512 9.024 108.736 18.112l99.392-54.528-27.264 90.624C969.728 28.128 1024 100.512 1024 182.24zM616.128 227.616c-17.984 0-36.224 17.92-36.224 36.224 0 18.048 18.24 36.224 36.224 36.224 27.52 0 45.376-18.176 45.376-36.224C661.504 245.536 643.648 227.616 616.128 227.616zM815.488 227.616c-17.856 0-36.032 17.92-36.032 36.224 0 18.048 18.112 36.224 36.032 36.224 27.264 0 45.376-18.176 45.376-36.224C860.864 245.536 842.752 227.616 815.488 227.616z"  horiz-adv-x="1024" />

    
    <glyph glyph-name="bang" unicode="&#59406;" d="M594.226235 240.848809 594.226235 444.496975c0 18.458397 4.072759 28.409027 12.342096 29.724998l14.626115 0 69.641103 0c13.1853 0 20.97573-1.918699 23.49204-5.39487 2.996241-4.191462 4.674463-10.307763 4.674463-18.576077l0-29.246091c0-3.716648-1.321088-6.952342-3.953032-9.468652-2.998287-2.879584-10.308787-4.198625-22.177092-4.198625l-54.295604 0 0-56.213279 54.295604 0c11.266601 0 18.459421-1.679245 21.455661-4.674463 2.996241-2.997264 4.674463-7.791453 4.674463-14.505365l0-21.935592c0-5.990434-1.321088-10.54517-3.837398-13.541411-2.51631-2.998287-9.709129-4.314259-20.97573-4.314259l-49.982368 0 0-45.669132 67.603701 0c13.904685 0 24.569582 0.960885 32.242332 2.996241 5.634324 1.558495 11.026124 4.678556 16.660448 9.713222 8.870018 7.67275 13.302981 17.258059 13.302981 28.886911l0 57.533344c0 13.780865-0.959861 22.291702-2.39863 25.286919-1.914606 3.716648-5.630231 7.79043-10.904351 12.706393 8.870018 7.791453 13.302981 18.101263 13.302981 30.445406l0 56.816007c0 17.376763-5.03262 30.562063-14.741749 39.070854-9.587356 8.154727-25.286919 12.226462-47.464011 12.226462L600.218716 522.165916c-35.957957 0-53.937446-16.058744-53.937446-47.942919L546.281269 240.848809 594.226235 240.848809zM306.559513 57.347494l0 82.222653c0 7.433296 0.959861 12.58155 2.996241 15.099906 3.593851 5.27412 10.066263 7.910157 19.535939 7.910157l157.258627 0L486.350318 44.640078l47.945989 0L534.296307 162.580211l155.819858 0c14.384615 0 21.695115-7.068999 21.695115-20.973684l0-14.984273c0-12.70537-9.113565-19.052938-27.331485-19.052938l-13.661138 0 0-50.221822 37.514405 0c37.996382 0 56.695257 19.293415 56.095599 57.529251l-0.477884 44.469817c-0.603751 34.161031-19.178805 51.179636-55.618738 51.179636L534.295284 210.526199 534.295284 246.129068l-47.945989 0 0-35.603893-184.706769 0c-11.384281 0-21.455661-4.437056-30.083156-13.06148-8.631588-8.634658-12.945847-23.49204-12.945847-44.113707l0-96.002494L306.559513 57.347494zM324.298526 294.430144c-9.827833-8.269337-18.816554-14.263865-26.728758-17.621333-10.670014-4.795213-26.009374-8.385994-45.907563-10.423397l0-51.903114c24.692379 2.631944 43.508933 5.754051 55.857169 9.709129 20.015869 6.236028 38.233789 16.301268 54.293557 30.323633 8.989745 7.912204 19.063171 21.213137 30.328749 39.914058l133.404336 0 0 47.944965L407.721517 342.374086l2.036379 35.956933 111.592564 0 0 47.945989L409.756873 426.277008l0 23.972994 115.78812 0 0 47.942919L409.756873 498.192921l0 24.932856-54.29458 0 0-24.932856L249.981936 498.192921l0-47.942919 105.48138 0 0-23.972994-100.203166 0 0-47.945989 100.203166 0-2.996241-35.956933L249.981936 342.374086l0-47.944965L324.298526 294.429121zM507.754814 808.321214C278.854521 807.07892 86.18336 654.651322 23.736099 446.219199l32.726356 0.178055c61.449537 190.960193 239.948931 329.648882 451.461205 330.796008 263.437901 1.429559 478.152101-210.966852 479.580636-474.404754 1.428535-263.436878-210.966852-478.151078-474.404754-479.580636C280.466228-178.053863 85.936743-12.527946 42.616098 207.596474l-31.618115-0.171915C54.821071-29.98555 263.393387-209.276982 513.269411-207.922125c280.628422 1.52268 506.885516 230.246965 505.363859 510.87948C1017.109568 583.585777 788.384259 809.843894 507.754814 808.321214z"  horiz-adv-x="1024" />

    
    <glyph glyph-name="rongyu" unicode="&#58920;" d="M958.123129 532.049007c0-117.181863-86.389556-181.768857-198.833511-192.56576-38.0762-87.679945-90.908476-154.688081-152.133909-189.308577l-22.769586-182.073802 4.860704 0c47.041386 0 86.256526-33.404808 95.275947-77.785597l21.403472 0c10.729365 0 19.445888-8.697079 19.445888-19.445888 0-10.749832-8.716522-19.446911-19.445888-19.446911L316.997236-148.577528c-10.730389 0-19.446911 8.697079-19.446911 19.446911 0 10.748808 8.717546 19.445888 19.446911 19.445888l21.402449 0c9.001001 44.38079 48.236608 77.785597 95.275947 77.785597l4.861728 0-22.769586 182.073802c-61.207014 34.610262-114.039289 101.609189-152.11549 189.279924C150.885987 350.13791 64.193533 414.724905 64.193533 532.049007c0 128.880299-12.201903 116.678396 116.678396 116.678396l19.902282 0c-0.13303 6.494924-0.455371 12.894681-0.455371 19.445888 0 17.09126 0.740874 33.841759 1.727341 50.477648-1.073448 2.410909-1.727341 5.052063-1.727341 7.862062 0 3.560082 1.215688 6.703679 2.877537 9.572006 0.246617 3.285836 0.388856 6.608511 0.654916 9.874905l15.914458 0 23.168676 0 537.057699 0 23.167652 0 15.914458 0c0.26606-3.266393 0.400113-6.589069 0.64673-9.874905 1.671059-2.868327 2.885723-6.010901 2.885723-9.572006 0-2.809999-0.664126-5.450129-1.728364-7.862062 0.988514-16.635889 1.728364-33.386388 1.728364-50.477648 0-6.551206-0.322341-12.951987-0.454348-19.445888l19.426445 0C970.313775 648.728426 958.123129 660.929306 958.123129 532.049007zM433.675632-70.790908c-25.351388 0-46.735417-16.295128-54.768371-38.892799l265.109983 0c-8.032954 22.597671-29.416983 38.892799-54.769394 38.892799L433.675632-70.790908zM550.354028 123.674109l-77.785597 0 12.970406-155.572218 51.844785 0L550.354028 123.674109zM181.517635 609.683155c-11.376095 0-21.659299 0.094144-30.955013 0.170892l-20.490683 0.13303c-11.631922 0-20.272719-0.284479-25.837458-0.836041-1.006933-10.064216-0.845251-28.428469-0.683569-46.337351 0.085958-9.286504 0.180102-19.560498 0.180102-30.91715 0-89.626273 60.998259-138.005121 143.627165-151.507646-24.232914 67.834968-39.937594 145.773038-45.046962 229.294266L181.517635 609.683155zM782.705933 707.067112 240.218572 707.067112c-0.626263-12.837376-1.006933-25.78834-1.006933-38.892799 0-274.063913 124.673487-505.607406 272.250614-505.607406s272.250614 231.543494 272.250614 505.607406C783.711843 681.278773 783.332197 694.229736 782.705933 707.067112zM918.128229 609.151036c-5.564739 0.551562-14.186094 0.836041-25.808806 0.836041l-20.47124-0.13303c-9.286504-0.076748-19.561521-0.170892-30.918173-0.170892l-20.319791 0c-5.127787-83.492576-20.813025-161.412227-45.025473-229.227752 82.322937 13.58746 143.057183 61.966307 143.057183 151.441131 0 11.356652 0.074701 21.630646 0.169869 30.91715C918.983713 580.722566 919.134139 599.086819 918.128229 609.151036z"  horiz-adv-x="1024" />

    
    <glyph glyph-name="banshuidatingshishixinxi" unicode="&#58922;" d="M373.54616 548.623497 511.279081 686.383024 646.062833 551.646344 697.140139 500.531176 709.971375 513.416648 646.062833 577.326213 514.276345 709.099399 511.279081 712.059823 508.330936 709.099399 373.54616 574.354532 309.609988 510.391754 322.467831 497.521632ZM349.455485 347.641043 76.988953 347.641043 58.794569 250.760552 349.455485 250.760552ZM667.409001 250.760552 958.045357 250.760552 939.874509 347.641043 667.409001 347.641043ZM349.455485 232.576401 116.32689 232.576401 116.32689-35.709925l233.127572 0L349.454462 232.576401zM285.366841 183.404492l48.461735 0 0-42.424228-48.461735 0L285.366841 183.404492zM285.113061 118.401012l48.435129 0 0-42.386366-48.435129 0L285.113061 118.401012zM283.53717 49.992993l48.408523 0 0-42.374086-48.408523 0L283.53717 49.992993zM208.674135 183.404492l48.434106 0 0-42.424228-48.434106 0L208.674135 183.404492zM208.419332 118.401012l48.409546 0 0-42.386366-48.409546 0L208.419332 118.401012zM206.768739 49.992993l48.458665 0 0-42.374086-48.458665 0L206.768739 49.992993zM135.741056 183.404492l48.384987 0 0-42.424228-48.384987 0L135.741056 183.404492zM135.459646 118.401012l48.411593 0 0-42.386366-48.411593 0L135.459646 118.401012zM133.861242 49.992993l48.411593 0 0-42.374086-48.411593 0L133.861242 49.992993zM667.409001-35.696622 900.513036-35.696622 900.513036 232.576401 667.409001 232.576401 667.409001-35.696622zM836.447928 183.404492l48.409546 0 0-42.424228-48.409546 0L836.447928 183.404492zM836.170612 118.401012l48.4075 0 0-42.386366-48.4075 0L836.170612 118.401012zM834.568115 49.992993l48.435129 0 0-42.374086-48.435129 0L834.568115 49.992993zM759.704057 183.404492l48.434106 0 0-42.424228-48.434106 0L759.704057 183.404492zM759.399111 118.401012l48.459688 0 0-42.386366L759.399111 76.014646 759.399111 118.401012zM757.874385 49.992993l48.434106 0 0-42.374086L757.874385 7.618906 757.874385 49.992993zM686.79656 183.404492l48.383964 0 0-42.424228-48.383964 0L686.79656 183.404492zM686.467055 118.401012l48.50983 0 0-42.386366-48.50983 0L686.467055 118.401012zM684.91777 49.992993l48.384987 0 0-42.374086-48.384987 0L684.91777 49.992993zM70.890049-48.97402l887.155309 0 0-30.263258-887.155309 0 0 30.263258ZM373.54616 530.466975l0-566.150294 272.516674 0L646.062833 533.478566 511.279081 668.198873 373.54616 530.466975zM464.085222 483.808306c1.673106 1.905396 3.595898 4.656043 5.7694 8.253988s3.507894 6.198166 4.00829 7.800663l1.709945 5.075599-6.732331 0-8.547677-0.213871 0 11.861142 8.547677-0.267083 7.694239 0 0 12.822027c-5.628184-1.033539-10.187013-1.728364-13.676487-2.083451-0.748037 3.667529-1.496074 6.304589-2.24411 7.907087l-1.816369 4.007267c5.414313-0.071631 9.660011 0.097214 12.742209 0.50756 3.081175 0.409322 6.321986 0.979304 9.723455 1.709945 3.40147 0.729617 7.577582 2.038426 12.528338 3.926426 1.530866-3.918239 2.794649-6.6607 3.793396-8.227382l2.24411-3.793396c-3.812839-0.747014-7.730055-1.477654-11.753695-2.190899l0-14.585183 4.166903 0 7.052626 0.267083 0-11.861142-7.15905 0.213871-4.059456 0 0-8.17417c1.9934 1.174756 3.774977 2.332115 5.341658 3.473101 1.105171-1.959631 2.609431-4.524037 4.514827-7.693216 1.904373-3.171226 3.552919-5.931083 4.942569-8.281617-0.641613-0.534166-1.121544-0.926092-1.442862-1.174756l-5.875824-3.953032-2.190899-1.656733c-1.566682 2.742461-3.329838 5.734608-5.288446 8.975419l0-30.772864 0.373507-10.738575L476.158189 444.942113l0.37453 10.738575 0 25.003464c-1.318018-1.852184-2.636037-3.668553-3.954055-5.449106-1.318018-1.781576-4.25593-5.164626-8.813736-10.150174-1.426489 4.380774-2.725064 7.728008-3.900843 10.04375l-1.709945 3.365654C460.433042 480.131567 462.41007 481.90291 464.085222 483.808306zM501.588371 524.546126l7.267521-0.426719 3.739161 0c-0.534166 1.246387-0.980327 2.270716-1.336438 3.071965-0.357134 0.801249-1.193175 2.411933-2.511193 4.835122-1.318018 2.421142-2.082428 3.810792-2.296299 4.166903l-2.937912 4.327562c3.097548 0.889253 6.801916 2.670829 11.112082 5.341658 1.103124-1.994424 1.957585-3.472078 2.564405-4.433986l4.488221-7.586792 2.403746-4.166903c-3.027963-1.639337-6.179746-3.491521-9.455349-5.556553l22.116717 0c-2.529613 1.424442-4.985548 2.706645-7.371898 3.846608 1.852184 2.599198 3.374864 5.083785 4.568039 7.452739s2.02103 4.335748 2.484587 5.903453l1.335415 4.27435c3.384074-1.852184 7.604188-3.721765 12.661368-5.609765-0.49835-0.926092-0.853437-1.602498-1.068332-2.030239l-2.778276-5.502317c-0.9967-1.888-2.564405-4.666276-4.701069-8.334829l4.701069 0 6.304589 0.426719-0.426719-8.227382 0-20.194948 0.426719-9.562796-6.144954 0.320295-5.929036 0 0-25.217335c0-2.456958 0.257873-3.980661 0.774643-4.567016 0.515746-0.587378 1.432629-0.809435 2.750647-0.667196 1.353834 0.106424 2.456958 0.73985 3.311419 1.896186 0.855484 1.158383 1.318018 2.644223 1.38965 4.460592l0.373507 5.983271c3.560082-1.424442 7.568373-2.742461 12.020778-3.953032-0.39295-2.599198-0.8913-5.680373-1.496074-9.242502-0.606821-3.561106-1.888-6.321986-3.846608-8.281617-1.959631-1.958608-6.180769-2.831488-12.661368-2.617617-6.661723 0.213871-10.561543 0.916882-11.701506 2.110057-1.139963 1.194198-1.815345 2.173502-2.029216 2.938935-0.214894 0.766456-0.320295 1.87879-0.320295 3.339048l0 33.818223-4.647857 0c-0.179079-3.882424-0.401136-7.444553-0.668219-10.685363-0.267083-3.240811-0.988514-6.846942-2.163269-10.818393-1.173732-3.970428-3.276626-7.593955-6.303566-10.871605-3.027963-3.276626-6.643304-5.858428-10.846022-7.746428l-5.822612-2.725064c-2.63706 3.953032-5.235235 7.444553-7.800663 10.471492 3.8814 1.068332 7.417947 2.422166 10.605545 4.060479 3.186576 1.639337 5.519714 3.802606 6.998391 6.491855 1.477654 2.688225 2.484587 5.733585 3.018753 9.135054 0.533143 3.400446 0.836041 6.66991 0.908696 9.804297l0.053212 2.8847-3.312442 0-7.693216-0.160659 0.267083 8.388041 0 20.194948L501.588371 524.546126zM514.091126 513.379808l0-15.33322 26.712385 0 0 15.33322L514.091126 513.379808z"  horiz-adv-x="1024" />

    
    <glyph glyph-name="qingdaobanshuidatingshishipaiduixinxi" unicode="&#58923;" d="M959.214996-109.745105c0-21.621437-17.530258-39.150672-39.150672-39.150672L98.961384-148.895777c-21.623483 0-39.151695 17.529235-39.151695 39.150672L59.809689 711.357835c0 21.62246 17.527189 39.151695 39.151695 39.151695l821.10294 0c21.620413 0 39.150672-17.529235 39.150672-39.151695L959.214996-109.745105zM907.200342 663.872335c0 19.123546-15.502066 34.622542-34.623565 34.622542L146.447908 698.494876c-19.123546 0-34.624589-15.498996-34.624589-34.622542l0-726.130915c0-19.123546 15.501042-34.627658 34.624589-34.627658L872.576777-96.886239c19.1215 0 34.623565 15.504112 34.623565 34.627658L907.200342 663.872335zM623.56954 366.864874c50.265824 0 91.13872 40.957831 91.13872 91.190909 0 50.480718-40.871873 91.318822-91.13872 91.318822-50.560536 0-91.311659-40.839127-91.311659-91.318822C532.257881 407.822704 573.009004 366.864874 623.56954 366.864874M710.973192 339.072901l-58.81964 0-47.168276 0-67.211774 0c-123.901915-2.427282-119.525234-93.322455-119.525234-93.322455l0-357.121584 72.931033 0L491.1793 229.84315l22.86066 0-0.115634-341.214289 218.413452 0L732.337779 230.889993l23.449062 0 0-342.261131 72.947406 0L828.734246 245.750445C820.738132 340.268122 710.973192 339.072901 710.973192 339.072901M502.349711 458.663626l-3.212158-43.701315L394.707109 414.962312c0 0-62.659085-14.950504-62.659085-96.411817l0-261.632789c0 0-37.115316 15.84692-37.836747 59.448974L294.211277 362.668295c0 0 14.45727 79.551824 100.856036 95.072309L502.349711 458.663626zM609.565595 562.489296c0 0-16.067954 112.49512-131.751696 83.515089 0 0-89.976244-38.618553-42.574654-135.227868 0 0 14.745842-31.488155 78.469166-42.898019C513.707386 467.877475 515.506359 556.05884 609.565595 562.489296zM391.925762 559.400958l-3.214205-43.702338L284.281113 515.69862c0 0-62.659085-14.94948-62.659085-96.41284l0-261.630742c0 0-37.114293 15.845896-37.836747 59.448974L183.785282 463.405627c0 0 14.45727 79.551824 100.856036 95.073332L391.925762 559.400958zM499.138576 663.226628c0 0-16.067954 99.642394-131.750673 70.660316 0 0-89.976244-25.76378-42.573631-122.374118 0 0 14.743796-31.488155 78.467119-42.898019C403.281391 568.613784 405.07934 656.796172 499.138576 663.226628z"  horiz-adv-x="1024" />

    
    <glyph glyph-name="qingdaopaiduibanshuifenxi" unicode="&#58925;" d="M935.68714 700.057465 123.320165 700.057465c-20.836561 0-37.875632-17.042141-37.875632-37.862329l0-707.799408c0-20.833491 17.102516-37.877679 37.875632-37.877679l716.64896 0-59.35176 71.691809L192.986851-11.790142c-14.930037 0-27.13808 12.268418-27.13808 27.155477l0 513.280156c0 14.886035 12.20702 27.16878 27.13808 27.16878 177.819918 0 701.187827-1.77339 701.187827-1.77339l2.076288-518.818289 77.282131-104.377232L973.533097 662.194112C973.53412 682.969275 956.493002 700.057465 935.68714 700.057465zM409.538909 620.951803c0-7.343245-6.392594-13.737886-13.736862-13.737886L205.010699 607.213917c-7.342222 0-13.737886 6.181793-13.737886 13.737886l0 21.034059c0 7.559163 6.178723 13.722536 13.737886 13.722536l190.792371 0c7.55814 0 13.736862-6.379291 13.736862-13.722536L409.539932 620.951803zM973.53412 9.638913 973.53412 662.194112M933.629271-67.336226l-34.522258-25.63075c7.763824-5.585205 18.588357-5.812379 26.649963 0.168846C933.816536-86.815883 936.725796-76.37202 933.629271-67.336226zM930.41916-61.244484 888.372531-4.629046 852.153632-31.519486 894.201284-88.134925 894.419248-88.416334 930.623821-61.52794ZM878.706381-5.115116l-19.34765 26.049283c-3.356444-3.40761-7.015787-6.615675-10.979052-9.546424-3.949962-2.943029-8.070816-5.52176-12.31242-7.744381l19.34765-26.059516L878.706381-5.115116zM864.512101 145.768313c-30.643927 41.258683-88.947821 49.875944-130.207527 19.221784-41.273009-30.643927-49.875944-88.950891-19.234063-130.209574 30.65723-41.269939 88.950891-49.875944 130.221854-19.232017C886.549 46.201643 895.169331 104.498374 864.512101 145.768313zM730.597135 46.295787c-24.286126 32.704866-17.473977 78.890768 15.220656 103.178941 32.707936 24.278963 78.893838 17.460674 103.180987-15.232936 24.27487-32.69668 17.460674-78.891791-15.234983-103.167684C801.07121 6.785935 754.870981 13.599108 730.597135 46.295787zM376.643708 317.450441c38.171368 0 69.210291 31.102369 69.210291 69.248154 0 38.334073-31.036877 69.345368-69.210291 69.345368-38.393425 0-69.339228-31.012318-69.339228-69.345368C307.30448 348.552809 338.250282 317.450441 376.643708 317.450441M443.016371 296.346797l-44.666292 0-35.817764 0-51.040467 0c-94.085842-1.843998-90.763167-70.868047-90.763167-70.868047l0-271.189446 55.381331 0L276.110013 213.39862l17.36039 0-0.086981-259.109316 165.858492 0L459.241914 214.194752l17.805528 0 0-259.904425 55.394634 0L532.442076 225.478749C526.370801 297.254469 443.016371 296.346797 443.016371 296.346797M555.241338 390.151229c65.609277-11.786441 76.588329-72.195276 76.588329-72.195276l0-187.03786c-0.547469-33.109072-28.731368-45.143153-28.731368-45.143153L603.098299 284.452909c0 61.860906-47.581692 73.212442-47.581692 73.212442l-79.302137 0-2.438539 33.187867L555.241338 390.151229zM465.148437 397.849562c48.390104 8.665357 59.588143 32.576953 59.588143 32.576953 35.994796 73.361845-32.331359 102.688777-32.331359 102.688777-87.847767 22.0062-100.04967-63.419402-100.04967-63.419402C463.783347 464.812673 465.150484 397.848539 465.148437 397.849562zM654.512273 461.560606c65.609277-11.786441 76.588329-72.195276 76.588329-72.195276l0-187.036837c-0.547469-33.109072-28.731368-45.143153-28.731368-45.143153L702.369234 355.861262c0 61.860906-47.581692 73.212442-47.581692 73.212442l-79.302137 0-2.438539 33.187867L654.512273 461.560606zM564.419372 469.257915c48.390104 8.665357 59.588143 32.576953 59.588143 32.576953 35.994796 73.361845-32.331359 102.688777-32.331359 102.688777-87.847767 22.0062-100.04967-63.419402-100.04967-63.419402C563.054281 536.222049 564.421418 469.256892 564.419372 469.257915z"  horiz-adv-x="1024" />

    
    <glyph glyph-name="shoucang" unicode="&#59221;" d="M1003.480152 410.774943c-8.05649 24.472368-31.550577 43.048445-69.841671 55.206346-0.49528 0.173962-0.991584 0.320295-1.518586 0.436952l-207.836559 51.221592c-45.065382 62.444191-90.186022 124.845403-135.309732 187.275267-0.176009 0.234337-0.581238 0.815575-0.788969 1.036609-21.715581 27.595498-48.768727 42.787502-76.146261 42.787502-19.788695 0-48.828079-7.749498-75.008344-45.033659L321.306378 532.918817c-51.835575-14.285355-103.671151-28.602432-155.535379-42.946115l-75.798337-20.927635c-35.314297-10.403954-57.613162-27.275203-66.281589-50.099025-9.136078-23.990391-2.713808-51.980885 19.584034-85.544305 0.525979-0.802272 1.13894-1.591241 1.780553-2.321882 45.326325-52.127218 90.683349-104.296391 136.007627-156.540266-2.305509-75.273381-4.696975-150.618393-7.091512-225.963405-3.443425-36.07359 2.306532-61.494563 17.540492-77.706803 11.558244-12.302187 27.640524-18.519796 47.77919-18.519796 15.439644 0 33.739429 3.66139 58.46046 11.82021l200.13004 73.989131c75.506694-25.582655 151.10037-51.105958 227.626277-76.878948 14.944364-4.376681 28.746718-6.580882 41.12463-6.580882 28.133757 0 75.971275 11.760858 79.763648 90.579995 0.029676 0.817622 0.029676 1.619894 0 2.422166-4.201695 67.172889-8.435113 134.200468-12.668531 201.271026l-0.054235 0.874927 147.418514 180.051749C1003.83217 359.640332 1011.35961 386.857207 1003.480152 410.774943M944.029132 357.276495 791.558555 171.066489c-3.560082-4.348028-5.341658-9.821693-4.990664-15.352663l0.61296-9.499351c4.170996-66.632583 8.404414-133.236514 12.550851-199.999057-2.568499-46.436612-22.416546-46.436612-33.096792-46.436612-7.766894 0-17.075911 1.559519-26.677593 4.348028-78.278831 26.414603-156.527986 52.81181-234.717789 79.314417-5.223978 1.735527-10.885931 1.663896-16.052604-0.218988l-207.312626-76.673264c-18.62008-6.142907-32.57286-9.135054-42.581818-9.135054-9.689686 0-12.287861 2.744507-13.250792 3.764744-2.685155 2.861164-8.610098 12.855796-5.545296 43.852764 0.057305 0.481977 0.085958 0.961908 0.085958 1.444908 2.511193 78.468143 4.964058 156.920936 7.386224 235.300051 0.173962 5.517667-1.7519 10.916631-5.459339 15.149025-46.901193 54.067406-93.834108 108.063181-140.736325 162.013931-12.901845 19.730367-17.862833 35.08303-14.301727 44.465724 4.200672 11.062963 21.946848 18.358113 35.722596 22.415522l75.389014 20.837584c54.66604 15.089673 109.2451 30.16502 163.852812 45.209668 5.398964 1.489934 10.06831 4.801353 13.134135 9.326413l120.306017 177.511903c7.967462 11.382235 20.722974 24.953322 36.161594 24.953322 12.462846 0 26.327622-8.872065 38.700417-24.574698 46.75793-64.706721 93.541443-129.383766 140.243091-194.089463 3.210112-4.452405 7.938809-7.618515 13.366426-8.946766l215.455073-53.118801c22.151509-7.151887 36.07359-16.301268 39.22742-25.816992C962.035228 387.995123 956.520631 373.66372 944.029132 357.276495"  horiz-adv-x="1024" />

    
    <glyph glyph-name="weixin1" unicode="&#58973;" d="M584.613808 302.212388c-12.701277 0-25.476231-12.774955-25.476231-25.454742 0-12.892635 12.774955-25.50079 25.476231-25.50079 19.259646 0 31.864732 12.608156 31.864732 25.50079C616.479563 289.437433 603.873454 302.212388 584.613808 302.212388zM724.70545 302.212388c-12.608156 0-25.309432-12.774955-25.309432-25.454742 0-12.892635 12.701277-25.50079 25.309432-25.50079 19.089777 0 31.864732 12.608156 31.864732 25.50079C756.570181 289.437433 743.795227 302.212388 724.70545 302.212388zM323.524394 486.94167c-19.065218 0-38.347376-12.583596-38.347376-31.769564 0-19.089777 19.281135-31.862685 38.347376-31.862685 19.089777 0 31.769564 12.772908 31.769564 31.862685C355.293959 474.358073 342.614172 486.94167 323.524394 486.94167zM501.795591 423.30942c19.161409 0 31.864732 12.772908 31.864732 31.862685 0 19.185968-12.704346 31.769564-31.864732 31.769564-19.089777 0-38.275745-12.583596-38.275745-31.769564C463.519846 436.082328 482.705813 423.30942 501.795591 423.30942zM511.411599 748.582645c-246.399853 0-446.36821-199.87319-446.36821-446.370257S265.011746-144.156846 511.411599-144.156846c246.425436 0 446.298626 199.87319 446.298626 446.370257S757.837034 748.582645 511.411599 748.582645zM406.27405 161.954971c-31.794124 0-57.344033 6.484691-89.206718 12.774955l-89.039919-44.662199 25.454742 76.647681c-63.730487 44.542472-101.911064 102.004185-101.911064 171.929768 0 121.1922 114.682949 216.618573 254.703983 216.618573 125.2097 0 234.917334-76.215846 256.974699-178.845271-8.086166 0.908696-16.268522 1.484817-24.521486 1.484817-120.998795 0-216.523405-90.284259-216.523405-201.572902 0-18.49012 2.871397-36.338626 7.848759-53.370535C422.182368 162.336664 414.261978 161.954971 406.27405 161.954971zM781.952268 72.748253l19.185968-63.681368-69.854974 38.275745c-25.476231-6.386454-51.073212-12.774955-76.431763-12.774955-121.190153 0-216.618573 82.820264-216.618573 184.824449 0 101.839433 95.429443 184.827519 216.618573 184.827519 114.396423 0 216.332047-82.987063 216.332047-184.827519C871.182522 161.954971 833.098135 111.073116 781.952268 72.748253z"  horiz-adv-x="1024" />

    
    <glyph glyph-name="ketang" unicode="&#58930;" d="M576.9159400390624 215.73594199218746L640.2072877929688 134.66426455078135C644.2047801757813 129.55013759765632 644.1898642578125 121.27104023437494 640.2072877929688 116.15691152343766 636.2097954101562 111.0427845703125 629.7511598632813 111.0427845703125 625.7536674804687 116.15691152343766L545.7946466796875 215.73594199218746 486.5923663085938 215.73594199218746 406.622459375 116.15691152343766C402.6249669921875 111.0427845703125 396.1663314453125 111.0427845703125 392.1688390625 116.15691152343766 388.1713466796874 121.27104023437494 388.1713466796874 129.55013759765632 392.1688390625 134.66426455078135L455.46018681640624 215.73594199218746 312.064940234375 215.73594199218746C306.87891435546874 215.73594199218746 302.7366072265625 219.91867617187495 302.7366072265625 225.07833925781244L302.7366072265625 468.8902772460938C302.7366072265625 474.1094783203125 306.91304404296875 478.23267451171876 312.064940234375 478.23267451171876L711.935059765625 478.23267451171876C717.1210856445313 478.23267451171876 721.2633927734375 474.04994033203127 721.2633927734375 468.8902772460938L721.2633927734375 225.07833925781244C721.2633927734375 219.8591381835938 717.0869559570313 215.73594199218746 711.935059765625 215.73594199218746L576.9159400390624 215.73594199218746 576.9159400390624 215.73594199218746ZM512-66C760.5281375000001-66 962 135.47186249999993 962 384 962 632.5281375 760.5281375000001 834 512 834 263.47186250000004 834 62 632.5281375 62 384 62 135.47186249999993 263.47186250000004-66 512-66ZM277.6249997070313 552.75L746.3750002929687 552.75 746.3750002929687 515.2499997070313 277.6249997070313 515.2499997070313 277.6249997070313 552.75Z"  horiz-adv-x="1024" />

    
    <glyph glyph-name="iconfontchongzhi" unicode="&#59368;" d="M511.724-161.243c-60.667 0-119.534 11.888-174.968 35.334-53.528 22.641-101.594 55.045-142.864 96.315s-73.675 89.336-96.315 142.864c-23.449 55.434-35.336 114.302-35.336 174.968s11.888 119.534 35.334 174.968c22.641 53.528 55.045 101.594 96.315 142.864s89.336 73.675 142.864 96.315c55.435 23.448 114.302 35.335 174.969 35.335s119.533-11.888 174.968-35.334c53.527-22.641 101.593-55.045 142.864-96.315s73.675-89.336 96.315-142.864c23.447-55.433 35.334-114.301 35.334-174.968s-11.888-119.534-35.334-174.968c-22.641-53.527-55.045-101.593-96.315-142.864s-89.336-73.675-142.864-96.315c-55.435-23.449-114.302-35.335-174.968-35.335zM511.724 678.24c-52.663 0-103.734-10.307-151.797-30.636-46.437-19.642-88.148-47.767-123.976-83.593s-63.952-77.538-83.593-123.976c-20.329-48.063-30.636-99.134-30.636-151.797s10.307-103.735 30.636-151.797c19.642-46.437 47.767-88.148 83.593-123.976s77.538-63.952 123.976-83.593c48.063-20.329 99.134-30.637 151.797-30.637s103.735 10.307 151.797 30.637c46.437 19.642 88.148 47.766 123.976 83.593s63.952 77.538 83.593 123.976c20.329 48.063 30.637 99.134 30.637 151.797s-10.307 103.734-30.637 151.797c-19.642 46.437-47.766 88.148-83.593 123.976s-77.538 63.952-123.976 83.593c-48.062 20.329-99.134 30.636-151.797 30.636zM511.724 318.462c-7.612 0-15.222 2.903-21.029 8.711l-179.889 179.888c-11.614 11.614-11.614 30.444 0 42.059 11.614 11.614 30.444 11.614 42.059 0l179.888-179.889c11.614-11.614 11.614-30.444 0-42.059-5.807-5.807-13.418-8.71-21.029-8.71zM511.724 318.462c-7.612 0-15.222 2.903-21.029 8.711-11.614 11.614-11.614 30.444 0 42.059l179.889 179.888c11.613 11.614 30.444 11.614 42.058 0s11.614-30.444 0-42.059l-179.889-179.889c-5.807-5.807-13.418-8.71-21.029-8.71zM691.613 318.462h-359.778c-16.425 0-29.739 13.314-29.739 29.739s13.314 29.739 29.739 29.739h359.778c16.425 0 29.739-13.314 29.739-29.739s-13.313-29.739-29.739-29.739zM691.613 198.536h-359.778c-16.425 0-29.739 13.314-29.739 29.739s13.314 29.739 29.739 29.739h359.778c16.425 0 29.739-13.314 29.739-29.739s-13.313-29.739-29.739-29.739zM511.724-41.317c-16.425 0-29.739 13.314-29.739 29.739v359.779c0 16.425 13.314 29.739 29.739 29.739s29.739-13.314 29.739-29.739v-359.778c0-16.426-13.314-29.741-29.739-29.741z"  horiz-adv-x="1024" />

    
    <glyph glyph-name="xiugai" unicode="&#59151;" d="M383.754 165.754l181.095 51.415L435.497 345.729 383.754 165.754zM867.434 517.908 738.081 646.471 453.5 363.641l129.352-128.55L867.434 517.908zM829.739 41.828c0-44.671-36.226-80.913-80.911-80.913L263.344-39.085c-44.697 0-80.914 36.242-80.914 80.913L182.43 527.313c0 44.697 36.217 80.913 80.914 80.913l323.655 0 80.915 80.915L236.373 689.141c-74.487 0-134.856-60.369-134.856-134.857l0-539.426c0-74.489 60.37-134.856 134.856-134.856l539.426 0c74.474 0 134.856 60.369 134.856 134.856L910.655 446.4l-80.916-80.915L829.739 41.828zM927.554 625.901l-80.85 80.347c-13.395 13.315-35.835 12.59-50.124-1.606l-38.812-38.561 129.354-128.562 38.81 38.573C940.221 590.289 940.946 612.585 927.554 625.901z"  horiz-adv-x="1024" />

    
    <glyph glyph-name="dingdan" unicode="&#59390;" d="M791.969413 636.527546 707.978487 636.527546l0 55.993269-75.410504 0c-24.249287 33.334199-68.886927 55.995315-120.569006 55.995315-51.681056 0-96.317673-22.661116-120.56696-55.995315l-75.413574 0 0-55.993269-83.991949 0c-61.84658 0-111.985514-50.139957-111.985514-111.992677l0-559.938825c0-61.851697 50.138934-111.985514 111.985514-111.985514l559.941895 0c61.84965 0 111.98756 50.133817 111.98756 111.985514L903.95595 524.534869C903.956973 586.387589 853.819063 636.527546 791.969413 636.527546zM372.015805 636.527546l62.213947 0c0 30.922267 34.819017 55.993269 77.769224 55.993269 42.951231 0 77.769224-25.069979 77.769224-55.993269l62.215994 0 0-111.992677L372.015805 524.534869 372.015805 636.527546zM847.963705-35.403956c0-30.92329-25.068955-55.995315-55.994292-55.995315L232.027517-91.399271c-30.924313 0-55.991222 25.072025-55.991222 55.995315L176.036295 524.534869c0 30.922267 25.067932 55.995315 55.991222 55.995315l83.991949 0 0-111.98756L707.978487 468.542624 707.978487 580.530185l83.990926 0c30.925337 0 55.994292-25.072025 55.994292-55.995315L847.963705-35.403956zM707.977463 76.586674 316.019467 76.586674c-15.461133 0-27.995611-12.535501-27.995611-27.999704 0-15.46011 12.533454-27.995611 27.995611-27.995611l391.957996 0c15.464203 0 27.997658 12.535501 27.997658 27.995611C735.975121 64.051173 723.441667 76.586674 707.977463 76.586674zM707.977463 356.55711 316.019467 356.55711c-15.461133 0-27.995611-12.535501-27.995611-28.001751 0-15.458063 12.533454-27.995611 27.995611-27.995611l391.957996 0c15.464203 0 27.997658 12.537548 27.997658 27.995611C735.975121 344.021609 723.441667 356.55711 707.977463 356.55711zM707.977463 216.571892 316.019467 216.571892c-15.461133 0-27.995611-12.537548-27.995611-27.999704 0-15.46011 12.533454-27.995611 27.995611-27.995611l391.957996 0c15.464203 0 27.997658 12.535501 27.997658 27.995611C735.975121 204.034345 723.441667 216.571892 707.977463 216.571892z"  horiz-adv-x="1024" />

    
    <glyph glyph-name="iconfontcolor19" unicode="&#59008;" d="M992 384c0 265.095-214.89 480-480 480s-480-214.905-480-480c0-139.74 59.76-265.5 155.070-353.22 8.175-10.47 20.070-20.34 35.22-29.445 80.535-61.050 180.87-97.335 289.71-97.335 114.405 0 219.435 40.095 301.905 106.905 5.895 4.29 11.1 8.715 15.615 13.26 99.585 87.945 162.48 216.51 162.48 359.835zM76.999 384c0 240.255 194.759 435.001 435.001 435.001 240.27 0 435.001-194.745 435.001-435.001 0-106.095-38.025-203.295-101.13-278.79-13.425 68.85-65.925 69.135-136.575 83.79-74.385 15.525-140.595 18.3-113.94 117.63 35.865 26.265 44.010 79.935 88.035 97.695 16.575 21.405 12.48 56.475 0 71.745s-20.355 5.76-23.145 16.275c-2.58 55.515 18.72 137.070-19.425 163.335-6.27 3.885-12.21 5.205-18.841 5.205-6.675 0-14.265-1.305-21.481-1.305-4.8 0-10.365 0.75-14.79 2.595-21.45 7.95-22.59 36.255-46.26 38.85-6.27 0-12.75 0-19.605 0-32.55-21.99-71.565-18.135-105.435-27.75-1.47-0.375-3.51-0.735-4.8-1.485-19.98-6.285-32.025-18.121-39.961-33.479-10.725-21.27-12.945-50.1-12.945-82.305-0.18-18.9 0.375-39.435 0.375-60.315-16.845-8.88-23.7-27.345-24.060-46.59-0.375-11.1 1.11-22.935 4.425-32.58 5.355-17.94 22.035-22.545 35.715-39.21 16.080-19.77 27.195-46.62 41.25-61.41 5.565-5.205 10.935-8.88 18.135-10.365 0-21.645 0-42.915 0-64.365-5.565-7.215-11.49-13.319-18.135-18.495-60.675-51.045-184.245-29.040-224.010-105.090-4.95-9.9-7.26-13.155-8.82-16.335-65.145 76.050-104.58 174.765-104.58 282.75z"  horiz-adv-x="1024" />

    
    <glyph glyph-name="shuaxin1" unicode="&#59351;" d="M969.916221 394.228969c-11.116175 0-20.128433-9.012258-20.128433-20.128433 0-57.860802-11.328-113.980961-33.668821-166.799934-21.583574-51.027164-52.485375-96.860025-91.848894-136.222521-39.362496-39.36352-85.195358-70.26532-136.222521-91.848894-52.819996-22.340821-108.940155-33.668821-166.800957-33.668821s-113.979938 11.328-166.79891 33.668821c-51.027164 21.583574-96.859002 52.485375-136.221498 91.847871-39.362496 39.36352-70.264297 85.195358-91.846848 136.223544-22.340821 52.818973-33.667797 108.939131-33.667797 166.799934s11.328 113.980961 33.667797 166.799934c21.582551 51.027164 52.485375 96.859002 91.846848 136.221498 39.362496 39.362496 85.194334 70.264297 136.221498 91.846848 52.818973 22.340821 108.939131 33.667797 166.79891 33.667797 88.588641 0 174.554548-27.421536 246.359944-77.895091L662.939711 707.104839c-10.961656-1.847068-18.351973-12.231579-16.503882-23.193235 1.655709-9.830903 10.17678-16.787338 19.824511-16.787338 1.110287 0 2.237971 0.092098 3.368724 0.283456l151.254889 25.487487c10.961656 1.847068 18.351973 12.230556 16.503882 23.193235L813.903981 855.454562c-1.847068 10.961656-12.229532 18.349927-23.193235 16.503882-10.961656-1.847068-18.351973-12.230556-16.503882-23.193235l15.182794-90.107227C711.11185 813.262624 617.58985 842.894502 521.246595 842.894502c-63.277162 0-124.673487-12.397355-182.482101-36.848233-55.82647-23.612791-105.95824-57.411571-149.005662-100.457969-43.046399-43.046399-76.845179-93.179193-100.457969-149.004639C64.851007 498.775047 52.453652 437.378721 52.453652 374.101559c0-63.277162 12.397355-124.673487 36.848233-182.483124 23.612791-55.82647 57.411571-105.959264 100.457969-149.006685 43.046399-43.046399 93.179193-76.846202 149.005662-100.458993 57.808614-24.451902 119.203916-36.849256 182.482101-36.849256 63.278185 0 124.674511 12.397355 182.483124 36.849256 55.82647 23.612791 105.959264 57.411571 149.006685 100.458993 43.046399 43.047422 76.846202 93.181239 100.458993 149.006685 24.451902 57.808614 36.849256 119.204939 36.849256 182.483124C990.044654 385.217734 981.032396 394.228969 969.916221 394.228969z"  horiz-adv-x="1024" />

    
    <glyph glyph-name="shuaxin" unicode="&#59033;" d="M895.28343 180.06135C844.659449 20.968959 695.719278-94.284995 519.853875-94.284995c-217.549781 0-393.910465 176.360683-393.910465 393.910465 0 217.552851 176.360683 393.910465 393.910465 393.910465 128.869043 0 243.274676-61.891605 315.14147-157.563572L677.419494 535.972363c-14.505365 0-26.261107-11.758812-26.261107-26.261107s11.755742-26.25906 26.261107-26.25906l210.085786 0c14.500249 0 26.25906 11.755742 26.25906 26.25906L913.76434 719.797042c0 14.503319-11.758812 26.261107-26.25906 26.261107-14.503319 0-26.261107-11.758812-26.261107-26.261107l0-132.508943C779.353071 684.376321 656.812153 746.059172 519.853875 746.059172c-246.558465 0-446.432679-199.874213-446.432679-446.432679 0-246.556419 199.874213-446.430632 446.432679-446.430632 203.345268 0 374.929158 135.955438 428.830789 321.92292C933.031149 189.294642 910.3598 195.858128 895.28343 180.06135z"  horiz-adv-x="1024" />

    
    <glyph glyph-name="denglu1" unicode="&#59362;" d="M74.472727 291.043798C74.472727 537.2422 275.02808 737.527273 521.563564 737.527273 768.099049 737.527273 968.649579 537.2422 968.649579 291.043798 968.649579 44.835752 768.094227-155.44448 521.563564-155.44448 275.02808-155.44448 74.472727 44.835752 74.472727 291.043798L74.472727 291.043798ZM904.781526 291.043798C904.781526 502.074615 732.874342 673.745292 521.563564 673.745292 310.247964 673.745292 138.34078 502.069793 138.34078 291.043798 138.34078 80.012982 310.247964-91.662518 521.563564-91.662518 732.874342-91.662518 904.781526 80.012982 904.781526 291.043798L904.781526 291.043798ZM575.086238 109.197056 735.012659 267.153115C744.467977 276.469225 746.833008 290.244073 742.136702 301.823279 741.848474 302.551938 741.14655 303.126458 740.797999 303.832236 739.327851 306.795078 737.731063 309.763952 735.267133 312.253482 735.239391 312.281167 735.205618 312.281167 735.177877 312.313693 735.145314 312.342607 735.145314 312.379937 735.11154 312.413654L576.517809 471.23086C564.066695 483.702547 543.85111 483.731442 531.367433 471.295912 525.105692 465.076322 521.978433 456.876707 521.978433 448.718015 521.978433 440.583433 525.073129 432.421148 531.301097 426.201558L634.389448 322.932983 329.954583 322.932983C312.292184 322.932983 298.013919 308.645055 298.013919 291.043798 298.013919 273.438929 312.292184 259.151002 329.954583 259.151002L636.080314 259.151002 530.184304 154.540707C523.857436 148.321136 520.701245 140.092607 520.701245 131.868881 520.701245 123.768017 523.763377 115.665943 529.92983 109.446372 542.315818 96.918086 562.536225 96.790421 575.086238 109.197056L575.086238 109.197056Z"  horiz-adv-x="1024" />

    
    <glyph glyph-name="faxian1" unicode="&#58936;" d="M578.420364-70.270409 464.309527-70.270409C443.215127-70.270409 426.067782-87.1571 426.067782-107.897755 426.067782-128.750118 443.215127-145.692664 464.309527-145.692664L578.420364-145.692664C599.458909-145.692664 616.587636-128.750118 616.587636-107.897755 616.587636-87.1571 599.458909-70.270409 578.420364-70.270409L578.420364-70.270409ZM578.420364-117.765391 464.309527-117.765391C458.612364-117.765391 453.995055-113.352882 453.995055-107.897755 453.995055-102.554336 458.612364-98.197682 464.309527-98.197682L578.420364-98.197682C584.061673-98.197682 588.660364-102.554336 588.660364-107.897755 588.660364-113.352882 584.061673-117.765391 578.420364-117.765391L578.420364-117.765391ZM521.299782 731.279554C355.914473 731.279554 221.342255 596.8749 221.342255 431.675773 221.342255 338.026318 263.996509 251.712427 338.432 194.480136 339.158109 193.735409 339.977309 193.065155 340.8896 192.487991 341.671564 191.966682 342.416291 191.352282 344.315345 189.862827 366.768873 172.212791 392.946036 135.162609 392.946036 88.859191L392.946036 66.796645C392.946036 59.088718 399.220364 52.833009 406.909673 52.833009L635.708509 52.833009C643.435055 52.833009 649.690764 59.088718 649.690764 66.796645L649.690764 88.859191C649.690764 142.851918 681.751273 178.915336 700.704582 191.724645 701.300364 192.115627 701.840291 192.562464 702.342982 193.027918 777.951418 250.222973 821.275927 337.132645 821.275927 431.675773 821.275927 596.8749 686.703709 731.279554 521.299782 731.279554L521.299782 731.279554ZM684.469527 214.5133C684.264727 214.364355 684.041309 214.196791 683.836509 214.010609 652.725527 192.339045 621.763491 145.607409 621.763491 88.859191L621.763491 80.760282 535.300655 80.760282 535.300655 351.896864C561.328873 358.227045 580.803491 381.592864 580.803491 409.557373 580.803491 442.362609 554.105018 469.042464 521.337018 469.042464 488.531782 469.042464 461.851927 442.362609 461.851927 409.557373 461.851927 381.592864 481.307927 358.227045 507.373382 351.896864L507.373382 80.760282 420.873309 80.760282 420.873309 88.859191C420.873309 145.179191 388.943127 190.291045 362.3936 211.124791 362.114327 211.385445 360.643491 212.577009 360.3456 212.819045 359.656727 213.340355 358.986473 213.843045 358.334836 214.345736 357.943855 214.699482 357.534255 215.053227 357.087418 215.369736 288.591127 267.258609 249.269527 346.106609 249.269527 431.675773 249.269527 581.477663 371.311709 703.352281 521.299782 703.352281 671.287855 703.352281 793.348655 581.477663 793.348655 431.675773 793.348655 345.529445 753.654691 266.402173 684.469527 214.5133L684.469527 214.5133ZM521.337018 378.018173C503.929018 378.018173 489.7792 392.149373 489.7792 409.557373 489.7792 426.946755 503.929018 441.115191 521.337018 441.115191 538.707782 441.115191 552.876218 426.946755 552.876218 409.557373 552.876218 392.149373 538.707782 378.018173 521.337018 378.018173L521.337018 378.018173ZM608.730764 35.387773 433.8688 35.387773C412.811636 35.387773 395.645673 18.482464 395.645673-2.276809 395.645673-23.0547 412.811636-39.978627 433.8688-39.978627L608.730764-39.978627C629.825164-39.978627 647.009745-23.0547 647.009745-2.276809 647.009745 18.482464 629.825164 35.387773 608.730764 35.387773L608.730764 35.387773ZM608.730764-12.051355 433.8688-12.051355C428.301964-12.051355 423.572945-7.564373 423.572945-2.276809 423.572945 3.010755 428.301964 7.4605 433.8688 7.4605L608.730764 7.4605C614.353455 7.4605 619.082473 3.010755 619.082473-2.276809 619.082473-7.657464 614.446545-12.051355 608.730764-12.051355L608.730764-12.051355Z"  horiz-adv-x="1024" />

    
    <glyph glyph-name="shouhuodizhi" unicode="&#58939;" d="M512.029867 805.313067C233.163733 805.313067 7.163733 579.2608 7.163733 300.395733c0-278.814933 226-504.866133 504.866133-504.866133 278.866133 0 504.864 226.0512 504.864 504.866133C1016.893867 579.2608 790.896 805.313067 512.029867 805.313067zM512.029867-152.746667c-250.251733 0-453.143467 202.944-453.143467 453.1424 0 250.251733 202.891733 453.143467 453.143467 453.143467 250.200533 0 453.090133-202.891733 453.090133-453.143467C965.12 50.197333 762.2304-152.746667 512.029867-152.746667zM554.507733 524.059733c0 22.5376-19.5776 40.817067-43.672533 40.817067-24.148267 0-43.6736-18.279467-43.6736-40.817067 0-22.589867 19.5264-40.817067 43.6736-40.817067C534.930133 483.242667 554.507733 501.4688 554.507733 524.059733zM700.222933 361.2576c0 0-13.499733-36.247467 0-40.712533 16.359467-5.400533 58.267733 13.554133 58.267733 13.554133l0-176.4064c0 0-148.1056-56.501333-160.256-54.215467-12.152533 2.2336-160.257067 61.018667-174.797867 54.215467-14.593067-6.750933-160.256-40.6624-160.256-40.6624L263.1808 293.3856c0 0 67.4048 15.422933 72.8576 27.159467 6.490667 14.229333 4.8288 47.464533-43.725867 27.1072-48.554667-20.356267-72.858667-40.7136-72.858667-40.7136l0-217.0688c0 0 14.593067-36.144 43.725867-27.106133 29.1328 9.034667 160.256 54.2656 160.256 54.2656s155.373867-51.979733 174.797867-54.2656c19.4208-2.285867 203.357867 50.1632 203.981867 67.818667 1.973333 59.617067 2.388267 232.9088 0 244.229333C799.773867 386.08 729.357867 370.293333 700.222933 361.2576zM510.8352 239.117867c0 0 160.2048 148.001067 160.2048 277.514667 0 129.514667-160.2048 129.514667-160.2048 129.514667s-160.257067 0-160.257067-129.514667C350.578133 387.118933 510.8352 239.117867 510.8352 239.117867zM398.562133 534.341333c1.090133 4.309333 2.8032 8.4128 4.5696 12.5152 0.622933 1.4016 0.986667 2.9088 1.661867 4.3104 1.8688 3.790933 4.3104 7.218133 6.8032 10.7488 1.194667 1.713067 2.181333 3.531733 3.479467 5.1936 1.922133 2.440533 4.3104 4.5696 6.491733 6.802133 2.4928 2.597333 4.933333 5.2448 7.789867 7.634133 1.245867 0.986667 2.648533 1.8176 3.946667 2.753067 4.205867 3.271467 8.6208 6.334933 13.501867 8.983467 0.155733 0.104533 0.311467 0.208 0.519467 0.260267 11.735467 6.439467 25.186133 11.217067 40.194133 13.6576 7.4784 1.245867 15.2672 1.9744 23.160533 1.9744 0.104533 0 0.104533 0 0.155733 0l0.0512 0c8.1024 0 15.9424-0.727467 23.576533-2.0256 4.104533-0.6752 7.8432-1.921067 11.736533-2.96 3.323733-0.8832 6.855467-1.557333 10.0224-2.699733 3.271467-1.1424 6.180267-2.7008 9.296-4.0512 3.687467-1.6096 7.373867-3.166933 10.801067-5.089067 1.557333-0.9344 2.9088-1.921067 4.3616-2.907733 21.604267-13.554133 37.182933-32.976 42.478933-55.565867 1.402667-5.712 2.129067-11.476267 2.129067-17.2416 0-92.487467-114.453333-222-114.453333-222S396.3808 424.145067 396.3808 516.632533C396.3808 522.6048 397.159467 528.525867 398.562133 534.341333z"  horiz-adv-x="1024" />

    
    <glyph glyph-name="yuyue" unicode="&#58940;" d="M510.8208 811.5856C228.9728 811.5856 0.4912 583.1024 0.4912 301.2544s228.4816-510.3296 510.3296-510.3296S1021.1504 19.408 1021.1504 301.2544 792.6688 811.5856 510.8208 811.5856zM510.8208-201.4736c-277.6496 0-502.7296 225.0784-502.7296 502.7296S233.1712 803.984 510.8208 803.984c277.6496 0 502.7296-225.0784 502.7296-502.7296S788.4704-201.4736 510.8208-201.4736zM509.872 784.08c-266.6576 0-482.8256-216.168-482.8256-482.8256S243.216-181.5696 509.872-181.5696s482.8256 216.168 482.8256 482.8256S776.5296 784.08 509.872 784.08zM223.6912 409.008l0.2064 11.44 0.4256 22.8608 0.216 11.4304 161.3152 1.1168-1.1168-46.1808c-0.0144-2.024-0.3616-3.9472-1.0448-5.752-0.696-1.8128-1.6128-3.4992-2.7392-5.0368-1.136-1.5472-2.4544-2.8944-3.9472-4.0112-1.4976-1.1264-3.1184-1.9776-4.8816-2.528-1.7488-0.568-3.64-0.8336-5.6656-0.8336l-12.864-0.1376c-8.5728-0.1008-19.0288-0.2752-31.352-0.5312l-36.4448 0.1104c-12.3328-0.256-22.9392-0.3392-31.8-0.2656l-12.8544-0.1376c-4.5344-0.0912-8.6144 1.5568-12.232 4.9552-3.6224 3.4064-5.4496 7.7584-5.4912 13.0608L223.6912 409.008zM470.1584 220.2144l0-127.0912-18.864 0 0 109.2688-87.8272 0 0-109.2688-18.8544 0 0 127.0912 43.6528 0 6.4576 35.3824-59.4112 0 0 18.08 146.7152 0 0-18.08L415.648 255.5968l-7.4928-35.3824L470.1584 220.2144zM287.5264 172.4224l0-108.7456c0-19.6368-9.6448-29.4464-28.9296-29.4464L231.216 34.2304c-0.8656 6.192-2.0704 13.1712-3.6176 20.92 8.6096-1.0352 17.3056-1.5472 26.0896-1.5472 9.64 0 14.4672 5.504 14.4672 16.5328l0 102.2896-41.592 0 0 18.08 50.888 0c-11.192 13.4368-22.3888 25.4896-33.5824 36.1696l12.9184 11.3568c6.1968-5.504 12.1408-11.0192 17.824-16.5232l27.3808 33.3216-72.8464 0 0 18.08 96.6112 0 0-18.08-38.2304-46.2448c2.9264-3.096 5.7664-6.1088 8.5232-9.04l-10.3312-9.04 47.0144 0 0-17.3008c-2.7568-13.2624-7.0624-28.5952-12.9136-45.9792-5.3392 1.8864-11.2848 3.8736-17.824 5.9344 4.304 10.8528 8.0928 23.9424 11.3664 39.2656L287.5264 172.4256zM468.3456 31.6464c-21.0112 17.9056-43.5696 35.4736-67.6768 52.6928-1.7264-2.5824-3.448-5.0832-5.1696-7.4928-13.944-17.7408-35.816-33.4944-65.6112-47.2704-5.5088 7.0624-10.3312 12.7408-14.4624 17.0448 30.8256 12.7488 52.4352 27.2944 64.8368 43.6608 11.3616 14.8016 17.0448 36.2432 17.0448 64.3152l0 37.1952 19.1152 0 0-38.4864c0-20.1504-2.5824-37.4512-7.7488-51.9232 27.0384-18.08 51.6624-35.7296 73.8864-52.9488L468.3456 31.6464zM651.8944 66.5152c-27.8992-3.4432-61.0544-8.784-99.4496-16.0192l-4.6528 20.1504c37.8816 4.992 73.1088 10.3312 105.6512 16.0192C652.7552 79.7696 652.2416 73.056 651.8944 66.5152zM607.8576 197.9952c6.7968 11.3664 13.8112 23.768 21.048 37.1952l19.1152-9.5536c-22.2112-36.856-43.6608-68.712-64.3248-95.576 26.3504 3.6176 48.048 6.7968 65.1024 9.5536-1.2096-6.888-1.9872-13.4272-2.3264-19.6288-28.0816-3.792-56.832-8.096-86.2784-12.9136l-4.6528 19.1152c13.0064 13.2528 26.9088 31.5072 41.72 54.7632-19.6288-1.2096-34.32-2.2432-44.0464-3.1056l-4.9088 17.568c18.9408 25.1424 36.4256 55.88 52.4448 92.2144l19.6288-7.7488c-16.3584-31.5072-32.6336-59.1504-48.8176-82.9168C584.2992 197.216 596.3984 197.5648 607.8576 197.9952zM787.504 79.6864c-1.5472-27.376-16.1936-41.0688-43.9088-41.0688-16.1936 0-33.4128 0.5136-51.6576 1.5472-1.2096 6.7136-2.7664 14.472-4.6528 23.2464 19.6288-2.4096 37.6256-3.608 53.984-3.608 15.8448 0 24.1072 8.344 24.8032 25.0496 1.8864 24.2816 3.608 71.2944 5.1664 141.0416l-87.8352 0c-9.3792-19.2896-18.6848-35.9952-27.8992-50.1088-5.504 3.2704-11.7056 6.6224-18.5936 10.0752 21.6976 32.0288 38.1392 65.864 49.3408 101.5104l21.4416-5.9344c-5.1664-12.832-10.2496-24.8848-15.24-36.1696l100.9888 0C791.04 166.744 789.0608 111.5424 787.504 79.6864zM673.0704 173.4576l16.5408 10.8448c16.5232-21.176 31.0768-41.0688 43.6528-59.6624l-19.3808-12.4016C702.3424 131.1792 688.7504 151.5856 673.0704 173.4576zM796.6176 411.5536c-0.2656-3.096-1.1632-6.1088-2.7104-9.0128-1.5568-2.9216-3.728-5.1568-6.5024-6.7312-2.7744-1.5664-5.7984-2.3808-9.0672-2.4272l-13.3088 0.128c-9.0672-0.2016-19.8944-0.3568-32.5152-0.4304l-37.8816-0.2384c-12.6208-0.0912-23.2192-0.1744-31.8-0.2656l-13.2992 0.1376c-5.0096-0.2384-9.2784 1.4288-12.8048 4.9824-3.544 3.5632-5.184 7.8944-4.9088 13.0144l0.4768 11.88c0.1376 7.6208 0.2832 15.24 0.4208 22.8608l0.2192 11.44 164.8 0.8432L796.6176 411.5536zM633.2368 469.4848c0.1376 7.6112-2.7568 13.7296-8.6912 18.336-5.9632 4.5984-12.4832 7.7296-19.5824 9.3968-7.1264 1.6576-16.3856 3.096-27.816 4.3232-0.5952 0.3568-19.9488 0.384-58.0592 0.0912-38.1152-0.312-57.2576-0.6048-57.4368-0.8976-28.1136-2.8944-47.6736-6.3936-58.6736-10.496-10.9952-4.112-16.6976-11.5216-17.0864-22.2384l-160.3344-0.4944c-0.1056 4.5248 1.0304 9.928 3.3984 16.2112 2.368 6.2656 6.7456 13.6656 13.112 22.192 6.3744 8.5264 14.2144 16.9712 23.5344 25.344 9.3104 8.3616 21.968 16.7424 37.992 25.1136 16.0096 8.3712 33.856 15.7536 53.5216 22.128 19.6784 6.3664 43.7808 11.3664 72.3568 15.0032 28.5584 3.6368 59.5712 5.2848 93.0384 4.9456 27.5728-0.0272 53.4304-1.5472 77.5648-4.5712 24.1344-3.0128 44.9248-7.0624 62.3552-12.1088 17.4304-5.056 33.376-10.7344 47.8288-17.0272 14.4528-6.3008 26.3696-13.0976 35.7568-20.3888 9.3792-7.2992 17.5216-14.4528 24.4464-21.4688 6.9248-7.016 12.2464-13.9952 15.9728-20.9008 3.7376-6.9248 6.4848-12.9504 8.2528-18.0704 1.768-5.1296 2.8944-9.6544 3.352-13.592L633.2368 469.4848z"  horiz-adv-x="1024" />

    
    <glyph glyph-name="mianshuiguanli" unicode="&#58941;" d="M511.972882 757.121112c-252.080226 0-457.095529-205.039863-457.095529-457.119065s205.016327-457.122135 457.095529-457.122135c252.080226 0 457.146695 205.040886 457.146695 457.120089C969.121624 552.080226 764.053108 757.121112 511.972882 757.121112zM512.001535 684.836809c118.473275 0 224.438679-53.540404 295.03248-137.740084l-126.945227-87.909166-8.884344 0c13.19144 21.98471 27.824719 45.413306 43.970444 70.352301l-68.154239 26.381857c-1.476631-4.397147-4.397147-10.270924-8.794293-17.588587-16.144702-35.176151-28.580942-61.558008-37.374212-79.146595l-52.764738 0 26.381857 17.588587c-17.588587 27.824719-36.652781 54.962799-57.160861 81.344656l-54.962799-32.978089c14.633279-19.065218 26.381857-36.652781 35.176151-52.764738 4.397147-5.873778 7.316639-10.270924 8.794293-13.19144l-59.358923 0L446.957123 297.744633l-22.698978-15.719007c-13.334703 8.488325-28.479635 16.97665-45.455261 25.463951l0 28.580942 59.359946 0 0 65.956178-59.359946 0 0 68.154239c20.50808 1.442862 40.294728 4.397147 59.359946 8.794293l-13.19144 61.558008c-57.160861-8.794293-117.276007-16.144702-180.2779-21.98471 1.442862-10.270924 2.920516-20.541849 4.397147-30.779004 1.442862-13.19144 2.920516-23.462365 4.397147-30.779004 19.031449 2.920516 39.573297 5.118578 61.558008 6.595208l0-61.558008-70.352301 0 0-65.956178 65.955154 0c-19.065218-52.764738-43.249013-96.013751-72.550363-129.712247 2.920516-8.794293 7.316639-21.98471 13.19144-39.573297 0.440022-1.236154 0.871857-2.448772 1.296529-3.641947l-75.717496-52.433186c-31.637558 55.891961-49.703005 120.481002-49.703005 189.291181C127.164726 512.540697 299.461861 684.836809 512.001535 684.836809zM512.910231 343.418882l0 52.012607 75.108628 0L512.910231 343.418882zM664.609235 374.021877l0-64.333214-92.89983 0L664.609235 374.021877zM315.045791 206.397159l-1.667989-1.155313c0.555655 1.105171 1.109264 2.196015 1.667989 3.314489L315.045791 206.397159zM512.001535-84.835785c-121.772414 0-230.329852 56.561204-300.846906 144.842853l103.890138 71.944566 0-86.083587 63.757093 0L378.80186 176.102179l100.837616 69.829392 15.683191 0c-1.476631-45.447075-7.351432-76.226079-17.588587-92.337012-10.270924-21.98471-35.176151-41.771359-74.748425-59.359946 17.588587-17.588587 34.420951-36.619012 50.565652-57.160861 45.412282 30.779004 74.749448 58.638515 87.940888 83.543741 13.19144 26.381857 19.786649 68.154239 19.786649 125.3151l32.978089 0 0-136.307456c0-41.016159 21.22951-61.558008 63.757093-61.558008l26.381857 0c35.176151 0 57.160861 14.668071 65.955154 43.970444 2.920516 10.237155 6.595208 33.69952 10.992355 70.352301-20.541849 7.316639-41.049928 16.110933-61.558008 26.381857-1.476631-23.462365-3.675716-43.249013-6.595208-59.359946-1.476631-13.19144-5.873778-19.786649-13.19144-19.786649l-4.397147 0c-8.794293 0-13.94664 6.595208-15.389502 19.786649L660.212088 245.93157l70.352301 0L730.564389 419.696126l111.953791 77.527724c34.489512-57.676607 54.317093-125.132952 54.317093-197.221804C896.835274 87.461349 724.540186-84.835785 512.001535-84.835785z"  horiz-adv-x="1024" />

    
    <glyph glyph-name="renwu01" unicode="&#59493;" d="M773.8368 509.024l-11.6736 8.192-8.2176 11.7248-5.0944-2.3808-11.392-5.3248-537.6-251.4688-0.3328-27.008 192.1536-96.0768 96.0256-192.1536 27.0336 0.4096 251.4176 537.6 5.3248 11.392L773.8368 509.024zM670.7968 450.9376 401.3312 181.4464l-148.2496 74.1376L670.7968 450.9376zM695.9104 425.9264 500.48 8.1856l-74.112 148.224L695.9104 425.9264zM513.8432 762.9504c-255.6928 0-463.7184-208.0256-463.7184-463.7184s208.0256-463.6928 463.7184-463.6928c255.6928 0 463.6928 208 463.6928 463.6928S769.536 762.9504 513.8432 762.9504zM513.8432-129.0816c-236.16 0-428.288 192.1536-428.288 428.3136s192.128 428.288 428.288 428.288c236.16 0 428.288-192.128 428.288-428.288S750.0032-129.0816 513.8432-129.0816z"  horiz-adv-x="1024" />

    
    <glyph glyph-name="gr" unicode="&#58942;" d="M852.562954 565.307482c-2.159176 1.558495-4.461615 2.939959-6.90527 4.108574L570.425156 728.287413l-8.021697 4.691859c-34.241872 17.352203-74.450642 17.032932-107.932198-1.098008L172.29867 568.990361l-5.825682-3.452635c-34.224476-21.087271-54.656831-57.791218-54.656831-98.159624l0-325.995679c0-39.571251 19.829628-75.884294 53.91391-97.644901l99.788727-57.596789 0-0.124843 183.040826-105.541755c1.274016-0.831948 2.566452-1.574868 3.929496-2.337231l1.629103-0.920976c16.73208-9.188266 35.836183-14.057157 55.258535-14.057157 19.423375 0 38.509059 4.868891 55.258535 14.057157l2.337231 1.417279c0.778736 0.461511 1.594311 0.919952 2.337231 1.418302l190.192713 109.686145 0.034792 0.052189 85.411275 49.29266 9.207709 5.452175c32.543184 21.015639 52.283784 56.622602 52.798507 95.628988l0 327.427284C906.954749 507.233831 886.150934 544.521063 852.562954 565.307482M481.029126-75.527792l-2.160199 1.240247-13.171997-23.777543 11.296277 24.892947-159.278633 91.874477c-0.070608 1.910513-0.106424 3.806699-0.106424 5.734608 0 48.726771 19.016099 94.672196 53.524031 129.340787 34.543747 34.525328 80.489172 53.53938 129.374556 53.53938l24.009833 0c100.848872 0 182.897563-82.045621 182.897563-182.880167 0-0.636496 0-1.239224 0-1.87572l-165.848259-95.734388-1.752924-1.062192c-0.707105-0.424672-1.451048-0.851391-2.159176-1.293459C520.158309-84.804063 496.965074-84.255571 481.029126-75.527792M509.428943 267.357556c0 0-0.034792-0.017396-0.12382-0.017396l-0.089028 0.053212-86.578868 49.946552-1.381463 0.939395-0.584308 101.222379 88.668459 51.186799 86.491887-49.841152 2.832512-102.002139L509.428943 267.357556zM852.562954 140.516706c-0.282433-20.380166-10.69355-39.182394-26.930349-49.698912l-65.704444-37.926798c-11.420097 94.884021-78.966493 172.662455-168.450527 199.062731l35.447327 20.448728c15.332197 10.004865 24.645306 26.860764 24.859177 46.300512L651.784138 419.732965c0 19.228947-9.845229 36.685527-24.877597 45.768393l-92.405573 53.453423c-15.616676 8.055466-34.172287 8.515954-51.699476-0.779759l-90.104157-52.036143c-16.165168-10.075473-25.832342-27.444049-25.832342-46.477544l0-101.382015c0-18.662035 9.383718-35.855626 26.310226-46.761l35.995819-20.750603c-36.030611-11.296277-69.070098-31.109532-96.513124-58.569954-38.82833-39.005362-62.464657-89.005127-68.077491-142.812613l-70.397327 40.688701c-17.509792 11.205203-27.974122 30.381961-27.974122 51.308573L166.208974 467.378102c0 21.35333 10.746762 40.74089 28.381397 51.612495l286.406009 165.405167c8.498558 4.603855 18.306948 7.028067 28.381397 7.028067 9.755178 0 19.333324-2.336208 26.858718-6.089695l283.360649-163.688059 3.64604-2.177596c18.361183-10.994402 29.319769-30.381961 29.319769-51.876508L852.562954 140.516706z"  horiz-adv-x="1024" />

    
    </font>
</defs>
</svg>
